ffmpeg started on 2025-05-19 at 20:56:20
Report written to "D:\Convert\FFMetrics\reports\psnr_report-6.txt"
Log level: 32
Command line:
ffmpeg -hide_banner -nostdin -i "G:\\\xc0\xed\xe8\xec\xe5\\\xce\xed\xe3\xee\xe8\xed\xe3\xe8\\!_32_\xce\xf1\xe5\xed\xfc_2023\\\xc7\xe0\xe1\xee\xf2\xfb \xe7\xe0\xef\xe5\xf0\xf2\xee\xe9 \xef\xf0\xe8\xed\xf6\xe5\xf1\xf1\xfb \xe2\xe0\xec\xef\xe8\xf0\xee\xe2\\Hikikomari_Kyuuketsuki_no_Monmon_[03]_[AniLibria_TV]_[WEBRip_1080p]_HEVC.mkv" -i "G:\\\xc0\xed\xe8\xec\xe5\\\xce\xed\xe3\xee\xe8\xed\xe3\xe8\\!_32_\xce\xf1\xe5\xed\xfc_2023\\\xc7\xe0\xe1\xee\xf2\xfb \xe7\xe0\xef\xe5\xf0\xf2\xee\xe9 \xef\xf0\xe8\xed\xf6\xe5\xf1\xf1\xfb \xe2\xe0\xec\xef\xe8\xf0\xee\xe2\\Hikikomari_Kyuuketsuki_no_Monmon_[03]_[AniLibria_TV]_[WEBRip_1080p].mkv" -lavfi "[0:v]settb=AVTB,setpts=PTS-STARTPTS,format=pix_fmts=yuv420p10,fps=24000/1001,scale=1920:1080:flags=bicubic[main];[1:v]settb=AVTB,setpts=PTS-STARTPTS,format=pix_fmts=yuv420p,fps=24000/1001,scale=1920:1080:flags=bicubic[ref];[main][ref]psnr=eof_action=endall:stats_file='D\\:/Convert/FFMetrics/logs/psnr_logfile-6.txt'" -f null -
Input #0, matroska,webm, from 'G:\Аниме\Онгоинги\!_32_Осень_2023\Заботы запертой принцессы вампиров\Hikikomari_Kyuuketsuki_no_Monmon_[03]_[AniLibria_TV]_[WEBRip_1080p]_HEVC.mkv':
  Metadata:
    ENCODER         : Lavf61.7.100
  Duration: 00:24:02.52, start: -0.021000, bitrate: 1551 kb/s
  Stream #0:0(jpn): Video: hevc (Main 10), yuv420p10le(tv, bt709, progressive), 1920x1080 [SAR 1:1 DAR 16:9], 23.98 fps, 23.98 tbr, 1k tbn (default)
      Metadata:
        title           : Original
        ENCODER         : Lavc61.19.100 libx265
        BPS             : 1352576
        DURATION        : 00:24:02.440708333
        NUMBER_OF_FRAMES: 34584
        NUMBER_OF_BYTES : 243876267
        _STATISTICS_WRITING_APP: mkvpropedit v66.0.0 ('Josie') 64-bit
        _STATISTICS_WRITING_DATE_UTC: 2025-05-19 11:38:21
        _STATISTICS_TAGS: BPS DURATION NUMBER_OF_FRAMES NUMBER_OF_BYTES
  Stream #0:1(rus): Audio: aac (LC), 48000 Hz, stereo, fltp (default)
      Metadata:
        title           : AniLibria.TV
        ENCODER         : Lavc61.19.100 aac
        BPS             : 194373
        DURATION        : 00:24:02.496000000
        NUMBER_OF_FRAMES: 67618
        NUMBER_OF_BYTES : 35047942
        _STATISTICS_WRITING_APP: mkvpropedit v66.0.0 ('Josie') 64-bit
        _STATISTICS_WRITING_DATE_UTC: 2025-05-19 11:38:21
        _STATISTICS_TAGS: BPS DURATION NUMBER_OF_FRAMES NUMBER_OF_BYTES
  Stream #0:2(rus): Subtitle: ass (ssa) (default)
      Metadata:
        title           : Надписи
        BPS             : 41
        DURATION        : 00:21:34.250000000
        NUMBER_OF_FRAMES: 22
        NUMBER_OF_BYTES : 6686
        _STATISTICS_WRITING_APP: mkvpropedit v66.0.0 ('Josie') 64-bit
        _STATISTICS_WRITING_DATE_UTC: 2025-05-19 11:38:21
        _STATISTICS_TAGS: BPS DURATION NUMBER_OF_FRAMES NUMBER_OF_BYTES
  Stream #0:3(rus): Subtitle: ass (ssa)
      Metadata:
        title           : Субтитры
        BPS             : 183
        DURATION        : 00:24:01.040000000
        NUMBER_OF_FRAMES: 339
        NUMBER_OF_BYTES : 33100
        _STATISTICS_WRITING_APP: mkvpropedit v66.0.0 ('Josie') 64-bit
        _STATISTICS_WRITING_DATE_UTC: 2025-05-19 11:38:21
        _STATISTICS_TAGS: BPS DURATION NUMBER_OF_FRAMES NUMBER_OF_BYTES
Input #1, matroska,webm, from 'G:\Аниме\Онгоинги\!_32_Осень_2023\Заботы запертой принцессы вампиров\Hikikomari_Kyuuketsuki_no_Monmon_[03]_[AniLibria_TV]_[WEBRip_1080p].mkv':
  Metadata:
    encoder         : libebml v1.4.2 + libmatroska v1.6.4
    creation_time   : 2025-01-14T16:58:11.000000Z
  Duration: 00:24:02.50, start: 0.000000, bitrate: 2684 kb/s
  Stream #1:0(jpn): Video: h264 (High), yuv420p(progressive), 1920x1080 [SAR 1:1 DAR 16:9], 23.98 fps, 23.98 tbr, 1k tbn (default)
      Metadata:
        title           : Original
        BPS             : 2486156
        DURATION        : 00:24:02.441000000
        NUMBER_OF_FRAMES: 34584
        NUMBER_OF_BYTES : 448266783
        _STATISTICS_WRITING_APP: mkvmerge v66.0.0 ('Josie') 64-bit
        _STATISTICS_WRITING_DATE_UTC: 2025-01-14 16:58:11
        _STATISTICS_TAGS: BPS DURATION NUMBER_OF_FRAMES NUMBER_OF_BYTES
  Stream #1:1(rus): Audio: aac (LC), 48000 Hz, stereo, fltp (default)
      Metadata:
        title           : AniLibria.TV
        BPS             : 192000
        DURATION        : 00:24:02.496000000
        NUMBER_OF_FRAMES: 67617
        NUMBER_OF_BYTES : 34619905
        _STATISTICS_WRITING_APP: mkvmerge v66.0.0 ('Josie') 64-bit
        _STATISTICS_WRITING_DATE_UTC: 2025-01-14 16:58:11
        _STATISTICS_TAGS: BPS DURATION NUMBER_OF_FRAMES NUMBER_OF_BYTES
  Stream #1:2(rus): Subtitle: ass (ssa) (default)
      Metadata:
        title           : Надписи
        BPS             : 41
        DURATION        : 00:21:34.250000000
        NUMBER_OF_FRAMES: 22
        NUMBER_OF_BYTES : 6686
        _STATISTICS_WRITING_APP: mkvmerge v66.0.0 ('Josie') 64-bit
        _STATISTICS_WRITING_DATE_UTC: 2025-01-14 16:58:11
        _STATISTICS_TAGS: BPS DURATION NUMBER_OF_FRAMES NUMBER_OF_BYTES
  Stream #1:3(rus): Subtitle: ass (ssa)
      Metadata:
        title           : Субтитры
        BPS             : 183
        DURATION        : 00:24:01.040000000
        NUMBER_OF_FRAMES: 339
        NUMBER_OF_BYTES : 33100
        _STATISTICS_WRITING_APP: mkvmerge v66.0.0 ('Josie') 64-bit
        _STATISTICS_WRITING_DATE_UTC: 2025-01-14 16:58:11
        _STATISTICS_TAGS: BPS DURATION NUMBER_OF_FRAMES NUMBER_OF_BYTES
  Stream #1:4: Attachment: ttf
      Metadata:
        filename        : allods_west.ttf
        mimetype        : application/x-truetype-font
  Stream #1:5: Attachment: ttf
      Metadata:
        filename        : phagspab.ttf
        mimetype        : application/x-truetype-font
  Stream #1:6: Attachment: ttf
      Metadata:
        filename        : tt0142m.ttf
        mimetype        : application/x-truetype-font
  Stream #1:7: Attachment: ttf
      Metadata:
        filename        : AGCOSCR.TTF
        mimetype        : application/x-truetype-font
  Stream #1:8: Attachment: ttf
      Metadata:
        filename        : Roboto-Medium.ttf
        mimetype        : application/x-truetype-font
Stream mapping:
  Stream #0:0 (hevc) -> settb:default
  Stream #1:0 (h264) -> settb:default
  psnr:default -> Stream #0:0 (wrapped_avframe)
  Stream #0:1 -> #0:1 (aac (native) -> pcm_s16le (native))
[swscaler @ 00000232806d6a80] No accelerated colorspace conversion found from yuv420p to bgr48le.
[swscaler @ 0000023280889300] No accelerated colorspace conversion found from yuv420p to bgr48le.
[swscaler @ 00000232809b4d00] No accelerated colorspace conversion found from yuv420p to bgr48le.
[swscaler @ 0000023280b38200] No accelerated colorspace conversion found from yuv420p to bgr48le.
[swscaler @ 0000023280ce3040] No accelerated colorspace conversion found from yuv420p to bgr48le.
[swscaler @ 0000023280d7d4c0] No accelerated colorspace conversion found from yuv420p to bgr48le.
[swscaler @ 0000023280f8ecc0] No accelerated colorspace conversion found from yuv420p to bgr48le.
[swscaler @ 00000232868c1d00] No accelerated colorspace conversion found from yuv420p to bgr48le.
[swscaler @ 00000232868dbcc0] No accelerated colorspace conversion found from yuv420p to bgr48le.
[swscaler @ 00000232869cd280] No accelerated colorspace conversion found from yuv420p to bgr48le.
[swscaler @ 0000023286bd3c80] No accelerated colorspace conversion found from yuv420p to bgr48le.
[swscaler @ 0000023286d62180] No accelerated colorspace conversion found from yuv420p to bgr48le.
[swscaler @ 0000023286fe4d40] No accelerated colorspace conversion found from yuv420p to bgr48le.
[swscaler @ 00000232870da040] No accelerated colorspace conversion found from yuv420p to bgr48le.
[swscaler @ 0000023287177040] No accelerated colorspace conversion found from yuv420p to bgr48le.
[swscaler @ 00000232871e5e40] No accelerated colorspace conversion found from yuv420p to bgr48le.
Output #0, null, to 'pipe:':
  Metadata:
    encoder         : Lavf61.7.100
  Stream #0:0: Video: wrapped_avframe, yuv420p10le(tv, bt709, progressive), 1920x1080 [SAR 1:1 DAR 16:9], q=2-31, 200 kb/s, 23.98 fps, 23.98 tbn
      Metadata:
        encoder         : Lavc61.19.100 wrapped_avframe
  Stream #0:1(rus): Audio: pcm_s16le, 48000 Hz, stereo, s16, 1536 kb/s (default)
      Metadata:
        title           : AniLibria.TV
        _STATISTICS_TAGS: BPS DURATION NUMBER_OF_FRAMES NUMBER_OF_BYTES
        BPS             : 194373
        DURATION        : 00:24:02.496000000
        NUMBER_OF_FRAMES: 67618
        NUMBER_OF_BYTES : 35047942
        _STATISTICS_WRITING_APP: mkvpropedit v66.0.0 ('Josie') 64-bit
        _STATISTICS_WRITING_DATE_UTC: 2025-05-19 11:38:21
        encoder         : Lavc61.19.100 pcm_s16le
frame=   29 fps=0.0 q=-0.0 size=N/A time=00:00:01.20 bitrate=N/A speed=2.34x    frame=   71 fps= 69 q=-0.0 size=N/A time=00:00:02.96 bitrate=N/A speed= 2.9x    frame=  100 fps= 65 q=-0.0 size=N/A time=00:00:04.17 bitrate=N/A speed= 2.7x    frame=  146 fps= 71 q=-0.0 size=N/A time=00:00:06.08 bitrate=N/A speed=2.96x    frame=  190 fps= 74 q=-0.0 size=N/A time=00:00:07.92 bitrate=N/A speed=3.09x    frame=  231 fps= 75 q=-0.0 size=N/A time=00:00:09.63 bitrate=N/A speed=3.11x    frame=  271 fps= 75 q=-0.0 size=N/A time=00:00:11.30 bitrate=N/A speed=3.14x    frame=  298 fps= 72 q=-0.0 size=N/A time=00:00:12.42 bitrate=N/A speed=3.01x    frame=  348 fps= 75 q=-0.0 size=N/A time=00:00:14.51 bitrate=N/A speed=3.13x    frame=  380 fps= 74 q=-0.0 size=N/A time=00:00:15.84 bitrate=N/A speed=3.08x    frame=  432 fps= 76 q=-0.0 size=N/A time=00:00:18.01 bitrate=N/A speed=3.18x    frame=  459 fps= 74 q=-0.0 size=N/A time=00:00:19.14 bitrate=N/A speed= 3.1x    frame=  506 fps= 76 q=-0.0 size=N/A time=00:00:21.10 bitrate=N/A speed=3.15x    frame=  550 fps= 76 q=-0.0 size=N/A time=00:00:22.93 bitrate=N/A speed=3.18x    frame=  592 fps= 77 q=-0.0 size=N/A time=00:00:24.69 bitrate=N/A speed=3.19x    frame=  631 fps= 77 q=-0.0 size=N/A time=00:00:26.31 bitrate=N/A speed=3.19x    frame=  670 fps= 77 q=-0.0 size=N/A time=00:00:27.94 bitrate=N/A speed=3.19x    frame=  710 fps= 77 q=-0.0 size=N/A time=00:00:29.61 bitrate=N/A speed=3.19x    frame=  745 fps= 76 q=-0.0 size=N/A time=00:00:31.07 bitrate=N/A speed=3.18x    frame=  775 fps= 75 q=-0.0 size=N/A time=00:00:32.32 bitrate=N/A speed=3.13x    frame=  820 fps= 76 q=-0.0 size=N/A time=00:00:34.20 bitrate=N/A speed=3.16x    frame=  869 fps= 77 q=-0.0 size=N/A time=00:00:36.24 bitrate=N/A speed= 3.2x    frame=  907 fps= 77 q=-0.0 size=N/A time=00:00:37.82 bitrate=N/A speed=3.19x    frame=  947 fps= 77 q=-0.0 size=N/A time=00:00:39.49 bitrate=N/A speed= 3.2x    frame=  985 fps= 76 q=-0.0 size=N/A time=00:00:41.08 bitrate=N/A speed=3.19x    frame= 1012 fps= 76 q=-0.0 size=N/A time=00:00:42.20 bitrate=N/A speed=3.15x    frame= 1065 fps= 77 q=-0.0 size=N/A time=00:00:44.41 bitrate=N/A speed=3.19x    frame= 1106 fps= 77 q=-0.0 size=N/A time=00:00:46.12 bitrate=N/A speed=3.19x    frame= 1146 fps= 77 q=-0.0 size=N/A time=00:00:47.79 bitrate=N/A speed=3.19x    frame= 1186 fps= 77 q=-0.0 size=N/A time=00:00:49.46 bitrate=N/A speed=3.19x    frame= 1223 fps= 76 q=-0.0 size=N/A time=00:00:51.00 bitrate=N/A speed=3.19x    frame= 1255 fps= 76 q=-0.0 size=N/A time=00:00:52.34 bitrate=N/A speed=3.17x    frame= 1303 fps= 77 q=-0.0 size=N/A time=00:00:54.34 bitrate=N/A speed=3.19x    frame= 1342 fps= 76 q=-0.0 size=N/A time=00:00:55.97 bitrate=N/A speed=3.19x    frame= 1379 fps= 76 q=-0.0 size=N/A time=00:00:57.51 bitrate=N/A speed=3.19x    frame= 1421 fps= 76 q=-0.0 size=N/A time=00:00:59.26 bitrate=N/A speed=3.19x    frame= 1460 fps= 77 q=-0.0 size=N/A time=00:01:00.89 bitrate=N/A speed=3.19x    frame= 1496 fps= 76 q=-0.0 size=N/A time=00:01:02.39 bitrate=N/A speed=3.18x    frame= 1539 fps= 77 q=-0.0 size=N/A time=00:01:04.18 bitrate=N/A speed=3.19x    frame= 1579 fps= 77 q=-0.0 size=N/A time=00:01:05.85 bitrate=N/A speed=3.19x    frame= 1618 fps= 77 q=-0.0 size=N/A time=00:01:07.48 bitrate=N/A speed=3.19x    frame= 1652 fps= 76 q=-0.0 size=N/A time=00:01:08.90 bitrate=N/A speed=3.18x    frame= 1686 fps= 76 q=-0.0 size=N/A time=00:01:10.32 bitrate=N/A speed=3.17x    frame= 1731 fps= 76 q=-0.0 size=N/A time=00:01:12.19 bitrate=N/A speed=3.18x    frame= 1775 fps= 76 q=-0.0 size=N/A time=00:01:14.03 bitrate=N/A speed=3.19x    frame= 1815 fps= 76 q=-0.0 size=N/A time=00:01:15.70 bitrate=N/A speed=3.19x    frame= 1847 fps= 76 q=-0.0 size=N/A time=00:01:17.03 bitrate=N/A speed=3.18x    frame= 1894 fps= 76 q=-0.0 size=N/A time=00:01:18.99 bitrate=N/A speed=3.19x    frame= 1932 fps= 76 q=-0.0 size=N/A time=00:01:20.58 bitrate=N/A speed=3.19x    frame= 1973 fps= 76 q=-0.0 size=N/A time=00:01:22.29 bitrate=N/A speed=3.19x    frame= 2013 fps= 77 q=-0.0 size=N/A time=00:01:23.95 bitrate=N/A speed=3.19x    frame= 2048 fps= 76 q=-0.0 size=N/A time=00:01:25.41 bitrate=N/A speed=3.18x    frame= 2093 fps= 77 q=-0.0 size=N/A time=00:01:27.29 bitrate=N/A speed=3.19x    frame= 2133 fps= 77 q=-0.0 size=N/A time=00:01:28.96 bitrate=N/A speed=3.19x    frame= 2173 fps= 77 q=-0.0 size=N/A time=00:01:30.63 bitrate=N/A speed= 3.2x    frame= 2208 fps= 76 q=-0.0 size=N/A time=00:01:32.09 bitrate=N/A speed=3.19x    frame= 2246 fps= 76 q=-0.0 size=N/A time=00:01:33.67 bitrate=N/A speed=3.19x    frame= 2290 fps= 77 q=-0.0 size=N/A time=00:01:35.51 bitrate=N/A speed=3.19x    frame= 2329 fps= 77 q=-0.0 size=N/A time=00:01:37.13 bitrate=N/A speed=3.19x    frame= 2369 fps= 77 q=-0.0 size=N/A time=00:01:38.80 bitrate=N/A speed=3.19x    frame= 2407 fps= 77 q=-0.0 size=N/A time=00:01:40.39 bitrate=N/A speed=3.19x    frame= 2447 fps= 77 q=-0.0 size=N/A time=00:01:42.06 bitrate=N/A speed=3.19x    frame= 2486 fps= 77 q=-0.0 size=N/A time=00:01:43.68 bitrate=N/A speed=3.19x    frame= 2526 fps= 77 q=-0.0 size=N/A time=00:01:45.35 bitrate=N/A speed=3.19x    frame= 2565 fps= 77 q=-0.0 size=N/A time=00:01:46.98 bitrate=N/A speed=3.19x    frame= 2604 fps= 77 q=-0.0 size=N/A time=00:01:48.60 bitrate=N/A speed=3.19x    frame= 2645 fps= 77 q=-0.0 size=N/A time=00:01:50.31 bitrate=N/A speed=3.19x    frame= 2677 fps= 76 q=-0.0 size=N/A time=00:01:51.65 bitrate=N/A speed=3.18x    frame= 2722 fps= 76 q=-0.0 size=N/A time=00:01:53.53 bitrate=N/A speed=3.19x    frame= 2755 fps= 76 q=-0.0 size=N/A time=00:01:54.90 bitrate=N/A speed=3.18x    frame= 2798 fps= 76 q=-0.0 size=N/A time=00:01:56.69 bitrate=N/A speed=3.19x    frame= 2843 fps= 77 q=-0.0 size=N/A time=00:01:58.57 bitrate=N/A speed=3.19x    frame= 2881 fps= 77 q=-0.0 size=N/A time=00:02:00.16 bitrate=N/A speed=3.19x    frame= 2915 fps= 76 q=-0.0 size=N/A time=00:02:01.57 bitrate=N/A speed=3.19x    frame= 2960 fps= 77 q=-0.0 size=N/A time=00:02:03.45 bitrate=N/A speed=3.19x    frame= 2989 fps= 76 q=-0.0 size=N/A time=00:02:04.66 bitrate=N/A speed=3.18x    frame= 3039 fps= 77 q=-0.0 size=N/A time=00:02:06.75 bitrate=N/A speed=3.19x    frame= 3079 fps= 77 q=-0.0 size=N/A time=00:02:08.41 bitrate=N/A speed=3.19x    frame= 3117 fps= 77 q=-0.0 size=N/A time=00:02:10.00 bitrate=N/A speed=3.19x    frame= 3159 fps= 77 q=-0.0 size=N/A time=00:02:11.75 bitrate=N/A speed=3.19x    frame= 3197 fps= 77 q=-0.0 size=N/A time=00:02:13.34 bitrate=N/A speed=3.19x    frame= 3233 fps= 76 q=-0.0 size=N/A time=00:02:14.84 bitrate=N/A speed=3.19x    frame= 3274 fps= 76 q=-0.0 size=N/A time=00:02:16.55 bitrate=N/A speed=3.19x    frame= 3309 fps= 76 q=-0.0 size=N/A time=00:02:18.01 bitrate=N/A speed=3.19x    frame= 3354 fps= 77 q=-0.0 size=N/A time=00:02:19.88 bitrate=N/A speed=3.19x    frame= 3394 fps= 77 q=-0.0 size=N/A time=00:02:21.55 bitrate=N/A speed=3.19x    frame= 3433 fps= 77 q=-0.0 size=N/A time=00:02:23.18 bitrate=N/A speed=3.19x    frame= 3472 fps= 76 q=-0.0 size=N/A time=00:02:24.81 bitrate=N/A speed=3.19x    frame= 3511 fps= 76 q=-0.0 size=N/A time=00:02:26.43 bitrate=N/A speed=3.19x    frame= 3550 fps= 76 q=-0.0 size=N/A time=00:02:28.06 bitrate=N/A speed=3.19x    frame= 3588 fps= 76 q=-0.0 size=N/A time=00:02:29.64 bitrate=N/A speed=3.19x    frame= 3629 fps= 76 q=-0.0 size=N/A time=00:02:31.35 bitrate=N/A speed=3.19x    frame= 3668 fps= 76 q=-0.0 size=N/A time=00:02:32.98 bitrate=N/A speed=3.19x    frame= 3705 fps= 76 q=-0.0 size=N/A time=00:02:34.52 bitrate=N/A speed=3.19x    frame= 3746 fps= 76 q=-0.0 size=N/A time=00:02:36.23 bitrate=N/A speed=3.19x    frame= 3786 fps= 76 q=-0.0 size=N/A time=00:02:37.90 bitrate=N/A speed=3.19x    frame= 3810 fps= 76 q=-0.0 size=N/A time=00:02:38.90 bitrate=N/A speed=3.18x    frame= 3862 fps= 76 q=-0.0 size=N/A time=00:02:41.07 bitrate=N/A speed=3.19x    frame= 3902 fps= 76 q=-0.0 size=N/A time=00:02:42.74 bitrate=N/A speed=3.19x    frame= 3943 fps= 76 q=-0.0 size=N/A time=00:02:44.45 bitrate=N/A speed=3.19x    frame= 3977 fps= 76 q=-0.0 size=N/A time=00:02:45.87 bitrate=N/A speed=3.18x    frame= 4008 fps= 76 q=-0.0 size=N/A time=00:02:47.16 bitrate=N/A speed=3.18x    frame= 4054 fps= 76 q=-0.0 size=N/A time=00:02:49.08 bitrate=N/A speed=3.18x    frame= 4093 fps= 76 q=-0.0 size=N/A time=00:02:50.71 bitrate=N/A speed=3.18x    frame= 4139 fps= 76 q=-0.0 size=N/A time=00:02:52.63 bitrate=N/A speed=3.19x    frame= 4176 fps= 76 q=-0.0 size=N/A time=00:02:54.17 bitrate=N/A speed=3.19x    frame= 4216 fps= 76 q=-0.0 size=N/A time=00:02:55.84 bitrate=N/A speed=3.19x    frame= 4256 fps= 76 q=-0.0 size=N/A time=00:02:57.51 bitrate=N/A speed=3.19x    frame= 4292 fps= 76 q=-0.0 size=N/A time=00:02:59.01 bitrate=N/A speed=3.18x    frame= 4334 fps= 76 q=-0.0 size=N/A time=00:03:00.76 bitrate=N/A speed=3.19x    frame= 4373 fps= 76 q=-0.0 size=N/A time=00:03:02.39 bitrate=N/A speed=3.19x    frame= 4406 fps= 76 q=-0.0 size=N/A time=00:03:03.76 bitrate=N/A speed=3.18x    frame= 4451 fps= 76 q=-0.0 size=N/A time=00:03:05.64 bitrate=N/A speed=3.19x    frame= 4492 fps= 76 q=-0.0 size=N/A time=00:03:07.35 bitrate=N/A speed=3.19x    frame= 4530 fps= 76 q=-0.0 size=N/A time=00:03:08.93 bitrate=N/A speed=3.19x    frame= 4564 fps= 76 q=-0.0 size=N/A time=00:03:10.35 bitrate=N/A speed=3.18x    frame= 4609 fps= 76 q=-0.0 size=N/A time=00:03:12.23 bitrate=N/A speed=3.19x    frame= 4645 fps= 76 q=-0.0 size=N/A time=00:03:13.73 bitrate=N/A speed=3.18x    frame= 4688 fps= 76 q=-0.0 size=N/A time=00:03:15.52 bitrate=N/A speed=3.19x    frame= 4727 fps= 76 q=-0.0 size=N/A time=00:03:17.15 bitrate=N/A speed=3.19x    frame= 4761 fps= 76 q=-0.0 size=N/A time=00:03:18.57 bitrate=N/A speed=3.18x    frame= 4806 fps= 76 q=-0.0 size=N/A time=00:03:20.45 bitrate=N/A speed=3.19x    frame= 4842 fps= 76 q=-0.0 size=N/A time=00:03:21.95 bitrate=N/A speed=3.18x    frame= 4884 fps= 76 q=-0.0 size=N/A time=00:03:23.70 bitrate=N/A speed=3.18x    frame= 4921 fps= 76 q=-0.0 size=N/A time=00:03:25.24 bitrate=N/A speed=3.18x    frame= 4956 fps= 76 q=-0.0 size=N/A time=00:03:26.70 bitrate=N/A speed=3.18x    frame= 4998 fps= 76 q=-0.0 size=N/A time=00:03:28.45 bitrate=N/A speed=3.18x    frame= 5034 fps= 76 q=-0.0 size=N/A time=00:03:29.95 bitrate=N/A speed=3.18x    frame= 5075 fps= 76 q=-0.0 size=N/A time=00:03:31.66 bitrate=N/A speed=3.18x    frame= 5111 fps= 76 q=-0.0 size=N/A time=00:03:33.17 bitrate=N/A speed=3.18x    frame= 5151 fps= 76 q=-0.0 size=N/A time=00:03:34.83 bitrate=N/A speed=3.18x    frame= 5183 fps= 76 q=-0.0 size=N/A time=00:03:36.17 bitrate=N/A speed=3.17x    frame= 5227 fps= 76 q=-0.0 size=N/A time=00:03:38.00 bitrate=N/A speed=3.18x    frame= 5263 fps= 76 q=-0.0 size=N/A time=00:03:39.51 bitrate=N/A speed=3.18x    frame= 5305 fps= 76 q=-0.0 size=N/A time=00:03:41.26 bitrate=N/A speed=3.18x    frame= 5346 fps= 76 q=-0.0 size=N/A time=00:03:42.97 bitrate=N/A speed=3.18x    frame= 5384 fps= 76 q=-0.0 size=N/A time=00:03:44.55 bitrate=N/A speed=3.18x    frame= 5424 fps= 76 q=-0.0 size=N/A time=00:03:46.22 bitrate=N/A speed=3.18x    frame= 5451 fps= 76 q=-0.0 size=N/A time=00:03:47.35 bitrate=N/A speed=3.17x    frame= 5502 fps= 76 q=-0.0 size=N/A time=00:03:49.47 bitrate=N/A speed=3.18x    frame= 5541 fps= 76 q=-0.0 size=N/A time=00:03:51.10 bitrate=N/A speed=3.18x    frame= 5578 fps= 76 q=-0.0 size=N/A time=00:03:52.64 bitrate=N/A speed=3.17x    frame= 5620 fps= 76 q=-0.0 size=N/A time=00:03:54.40 bitrate=N/A speed=3.18x    frame= 5659 fps= 76 q=-0.0 size=N/A time=00:03:56.02 bitrate=N/A speed=3.18x    frame= 5695 fps= 76 q=-0.0 size=N/A time=00:03:57.52 bitrate=N/A speed=3.17x    frame= 5738 fps= 76 q=-0.0 size=N/A time=00:03:59.32 bitrate=N/A speed=3.18x    frame= 5775 fps= 76 q=-0.0 size=N/A time=00:04:00.86 bitrate=N/A speed=3.18x    frame= 5816 fps= 76 q=-0.0 size=N/A time=00:04:02.57 bitrate=N/A speed=3.18x    frame= 5856 fps= 76 q=-0.0 size=N/A time=00:04:04.24 bitrate=N/A speed=3.18x    frame= 5896 fps= 76 q=-0.0 size=N/A time=00:04:05.91 bitrate=N/A speed=3.18x    frame= 5934 fps= 76 q=-0.0 size=N/A time=00:04:07.49 bitrate=N/A speed=3.18x    frame= 5974 fps= 76 q=-0.0 size=N/A time=00:04:09.16 bitrate=N/A speed=3.18x    frame= 6013 fps= 76 q=-0.0 size=N/A time=00:04:10.79 bitrate=N/A speed=3.18x    frame= 6053 fps= 76 q=-0.0 size=N/A time=00:04:12.46 bitrate=N/A speed=3.18x    frame= 6092 fps= 76 q=-0.0 size=N/A time=00:04:14.08 bitrate=N/A speed=3.18x    frame= 6124 fps= 76 q=-0.0 size=N/A time=00:04:15.42 bitrate=N/A speed=3.17x    frame= 6172 fps= 76 q=-0.0 size=N/A time=00:04:17.42 bitrate=N/A speed=3.18x    frame= 6211 fps= 76 q=-0.0 size=N/A time=00:04:19.05 bitrate=N/A speed=3.18x    frame= 6251 fps= 76 q=-0.0 size=N/A time=00:04:20.71 bitrate=N/A speed=3.18x    frame= 6287 fps= 76 q=-0.0 size=N/A time=00:04:22.22 bitrate=N/A speed=3.18x    frame= 6329 fps= 76 q=-0.0 size=N/A time=00:04:23.97 bitrate=N/A speed=3.18x    frame= 6361 fps= 76 q=-0.0 size=N/A time=00:04:25.30 bitrate=N/A speed=3.17x    frame= 6407 fps= 76 q=-0.0 size=N/A time=00:04:27.22 bitrate=N/A speed=3.18x    frame= 6442 fps= 76 q=-0.0 size=N/A time=00:04:28.68 bitrate=N/A speed=3.17x    frame= 6486 fps= 76 q=-0.0 size=N/A time=00:04:30.52 bitrate=N/A speed=3.18x    frame= 6524 fps= 76 q=-0.0 size=N/A time=00:04:32.10 bitrate=N/A speed=3.18x    frame= 6564 fps= 76 q=-0.0 size=N/A time=00:04:33.77 bitrate=N/A speed=3.18x    frame= 6603 fps= 76 q=-0.0 size=N/A time=00:04:35.40 bitrate=N/A speed=3.18x    frame= 6642 fps= 76 q=-0.0 size=N/A time=00:04:37.02 bitrate=N/A speed=3.18x    frame= 6670 fps= 76 q=-0.0 size=N/A time=00:04:38.19 bitrate=N/A speed=3.17x    frame= 6716 fps= 76 q=-0.0 size=N/A time=00:04:40.11 bitrate=N/A speed=3.17x    frame= 6748 fps= 76 q=-0.0 size=N/A time=00:04:41.44 bitrate=N/A speed=3.17x    frame= 6798 fps= 76 q=-0.0 size=N/A time=00:04:43.53 bitrate=N/A speed=3.18x    frame= 6833 fps= 76 q=-0.0 size=N/A time=00:04:44.99 bitrate=N/A speed=3.17x    frame= 6877 fps= 76 q=-0.0 size=N/A time=00:04:46.82 bitrate=N/A speed=3.18x    frame= 6912 fps= 76 q=-0.0 size=N/A time=00:04:48.28 bitrate=N/A speed=3.17x    frame= 6954 fps= 76 q=-0.0 size=N/A time=00:04:50.03 bitrate=N/A speed=3.17x    frame= 6993 fps= 76 q=-0.0 size=N/A time=00:04:51.66 bitrate=N/A speed=3.17x    frame= 7032 fps= 76 q=-0.0 size=N/A time=00:04:53.29 bitrate=N/A speed=3.17x    frame= 7065 fps= 76 q=-0.0 size=N/A time=00:04:54.66 bitrate=N/A speed=3.17x    frame= 7108 fps= 76 q=-0.0 size=N/A time=00:04:56.46 bitrate=N/A speed=3.17x    frame= 7149 fps= 76 q=-0.0 size=N/A time=00:04:58.17 bitrate=N/A speed=3.17x    frame= 7190 fps= 76 q=-0.0 size=N/A time=00:04:59.88 bitrate=N/A speed=3.17x    frame= 7229 fps= 76 q=-0.0 size=N/A time=00:05:01.50 bitrate=N/A speed=3.18x    frame= 7268 fps= 76 q=-0.0 size=N/A time=00:05:03.13 bitrate=N/A speed=3.17x    frame= 7300 fps= 76 q=-0.0 size=N/A time=00:05:04.47 bitrate=N/A speed=3.17x    frame= 7334 fps= 76 q=-0.0 size=N/A time=00:05:05.88 bitrate=N/A speed=3.17x    frame= 7385 fps= 76 q=-0.0 size=N/A time=00:05:08.01 bitrate=N/A speed=3.17x    frame= 7424 fps= 76 q=-0.0 size=N/A time=00:05:09.64 bitrate=N/A speed=3.17x    frame= 7466 fps= 76 q=-0.0 size=N/A time=00:05:11.39 bitrate=N/A speed=3.18x    frame= 7505 fps= 76 q=-0.0 size=N/A time=00:05:13.02 bitrate=N/A speed=3.17x    frame= 7540 fps= 76 q=-0.0 size=N/A time=00:05:14.48 bitrate=N/A speed=3.17x    frame= 7584 fps= 76 q=-0.0 size=N/A time=00:05:16.31 bitrate=N/A speed=3.18x    frame= 7620 fps= 76 q=-0.0 size=N/A time=00:05:17.81 bitrate=N/A speed=3.17x    frame= 7653 fps= 76 q=-0.0 size=N/A time=00:05:19.19 bitrate=N/A speed=3.17x    frame= 7701 fps= 76 q=-0.0 size=N/A time=00:05:21.19 bitrate=N/A speed=3.17x    frame= 7740 fps= 76 q=-0.0 size=N/A time=00:05:22.82 bitrate=N/A speed=3.17x    frame= 7780 fps= 76 q=-0.0 size=N/A time=00:05:24.49 bitrate=N/A speed=3.17x    frame= 7816 fps= 76 q=-0.0 size=N/A time=00:05:25.99 bitrate=N/A speed=3.17x    frame= 7859 fps= 76 q=-0.0 size=N/A time=00:05:27.78 bitrate=N/A speed=3.18x    frame= 7900 fps= 76 q=-0.0 size=N/A time=00:05:29.49 bitrate=N/A speed=3.18x    frame= 7931 fps= 76 q=-0.0 size=N/A time=00:05:30.78 bitrate=N/A speed=3.17x    frame= 7974 fps= 76 q=-0.0 size=N/A time=00:05:32.58 bitrate=N/A speed=3.17x    frame= 8019 fps= 76 q=-0.0 size=N/A time=00:05:34.45 bitrate=N/A speed=3.18x    frame= 8058 fps= 76 q=-0.0 size=N/A time=00:05:36.08 bitrate=N/A speed=3.18x    frame= 8097 fps= 76 q=-0.0 size=N/A time=00:05:37.71 bitrate=N/A speed=3.18x    frame= 8137 fps= 76 q=-0.0 size=N/A time=00:05:39.38 bitrate=N/A speed=3.18x    frame= 8171 fps= 76 q=-0.0 size=N/A time=00:05:40.79 bitrate=N/A speed=3.17x    frame= 8216 fps= 76 q=-0.0 size=N/A time=00:05:42.67 bitrate=N/A speed=3.18x    frame= 8255 fps= 76 q=-0.0 size=N/A time=00:05:44.30 bitrate=N/A speed=3.18x    frame= 8285 fps= 76 q=-0.0 size=N/A time=00:05:45.55 bitrate=N/A speed=3.17x    frame= 8333 fps= 76 q=-0.0 size=N/A time=00:05:47.55 bitrate=N/A speed=3.18x    frame= 8372 fps= 76 q=-0.0 size=N/A time=00:05:49.18 bitrate=N/A speed=3.18x    frame= 8411 fps= 76 q=-0.0 size=N/A time=00:05:50.80 bitrate=N/A speed=3.18x    frame= 8445 fps= 76 q=-0.0 size=N/A time=00:05:52.22 bitrate=N/A speed=3.17x    frame= 8491 fps= 76 q=-0.0 size=N/A time=00:05:54.14 bitrate=N/A speed=3.18x    frame= 8531 fps= 76 q=-0.0 size=N/A time=00:05:55.81 bitrate=N/A speed=3.18x    frame= 8571 fps= 76 q=-0.0 size=N/A time=00:05:57.48 bitrate=N/A speed=3.18x    frame= 8603 fps= 76 q=-0.0 size=N/A time=00:05:58.81 bitrate=N/A speed=3.17x    frame= 8650 fps= 76 q=-0.0 size=N/A time=00:06:00.77 bitrate=N/A speed=3.18x    frame= 8688 fps= 76 q=-0.0 size=N/A time=00:06:02.36 bitrate=N/A speed=3.18x    frame= 8728 fps= 76 q=-0.0 size=N/A time=00:06:04.03 bitrate=N/A speed=3.18x    frame= 8767 fps= 76 q=-0.0 size=N/A time=00:06:05.65 bitrate=N/A speed=3.18x    frame= 8807 fps= 76 q=-0.0 size=N/A time=00:06:07.32 bitrate=N/A speed=3.18x    frame= 8847 fps= 76 q=-0.0 size=N/A time=00:06:08.99 bitrate=N/A speed=3.18x    frame= 8887 fps= 76 q=-0.0 size=N/A time=00:06:10.66 bitrate=N/A speed=3.18x    frame= 8925 fps= 76 q=-0.0 size=N/A time=00:06:12.24 bitrate=N/A speed=3.18x    frame= 8964 fps= 76 q=-0.0 size=N/A time=00:06:13.87 bitrate=N/A speed=3.18x    frame= 9003 fps= 76 q=-0.0 size=N/A time=00:06:15.50 bitrate=N/A speed=3.18x    frame= 9041 fps= 76 q=-0.0 size=N/A time=00:06:17.08 bitrate=N/A speed=3.18x    frame= 9068 fps= 76 q=-0.0 size=N/A time=00:06:18.21 bitrate=N/A speed=3.17x    frame= 9122 fps= 76 q=-0.0 size=N/A time=00:06:20.46 bitrate=N/A speed=3.18x    frame= 9162 fps= 76 q=-0.0 size=N/A time=00:06:22.13 bitrate=N/A speed=3.18x    frame= 9202 fps= 76 q=-0.0 size=N/A time=00:06:23.80 bitrate=N/A speed=3.18x    frame= 9233 fps= 76 q=-0.0 size=N/A time=00:06:25.09 bitrate=N/A speed=3.18x    frame= 9279 fps= 76 q=-0.0 size=N/A time=00:06:27.01 bitrate=N/A speed=3.18x    frame= 9318 fps= 76 q=-0.0 size=N/A time=00:06:28.63 bitrate=N/A speed=3.18x    frame= 9356 fps= 76 q=-0.0 size=N/A time=00:06:30.22 bitrate=N/A speed=3.18x    frame= 9392 fps= 76 q=-0.0 size=N/A time=00:06:31.72 bitrate=N/A speed=3.18x    frame= 9438 fps= 76 q=-0.0 size=N/A time=00:06:33.64 bitrate=N/A speed=3.18x    frame= 9475 fps= 76 q=-0.0 size=N/A time=00:06:35.18 bitrate=N/A speed=3.18x    frame= 9516 fps= 76 q=-0.0 size=N/A time=00:06:36.89 bitrate=N/A speed=3.18x    frame= 9554 fps= 76 q=-0.0 size=N/A time=00:06:38.48 bitrate=N/A speed=3.18x    frame= 9594 fps= 76 q=-0.0 size=N/A time=00:06:40.14 bitrate=N/A speed=3.18x    frame= 9625 fps= 76 q=-0.0 size=N/A time=00:06:41.44 bitrate=N/A speed=3.17x    frame= 9672 fps= 76 q=-0.0 size=N/A time=00:06:43.40 bitrate=N/A speed=3.18x    frame= 9710 fps= 76 q=-0.0 size=N/A time=00:06:44.98 bitrate=N/A speed=3.18x    frame= 9751 fps= 76 q=-0.0 size=N/A time=00:06:46.69 bitrate=N/A speed=3.18x    frame= 9789 fps= 76 q=-0.0 size=N/A time=00:06:48.32 bitrate=N/A speed=3.18x    frame= 9829 fps= 76 q=-0.0 size=N/A time=00:06:49.95 bitrate=N/A speed=3.18x    frame= 9867 fps= 76 q=-0.0 size=N/A time=00:06:51.53 bitrate=N/A speed=3.18x    frame= 9908 fps= 76 q=-0.0 size=N/A time=00:06:53.24 bitrate=N/A speed=3.18x    frame= 9947 fps= 76 q=-0.0 size=N/A time=00:06:54.87 bitrate=N/A speed=3.18x    frame= 9986 fps= 76 q=-0.0 size=N/A time=00:06:56.49 bitrate=N/A speed=3.18x    frame=10026 fps= 76 q=-0.0 size=N/A time=00:06:58.16 bitrate=N/A speed=3.18x    frame=10066 fps= 76 q=-0.0 size=N/A time=00:06:59.83 bitrate=N/A speed=3.18x    frame=10101 fps= 76 q=-0.0 size=N/A time=00:07:01.29 bitrate=N/A speed=3.18x    frame=10139 fps= 76 q=-0.0 size=N/A time=00:07:02.88 bitrate=N/A speed=3.18x    frame=10182 fps= 76 q=-0.0 size=N/A time=00:07:04.67 bitrate=N/A speed=3.18x    frame=10221 fps= 76 q=-0.0 size=N/A time=00:07:06.30 bitrate=N/A speed=3.18x    frame=10260 fps= 76 q=-0.0 size=N/A time=00:07:07.92 bitrate=N/A speed=3.18x    frame=10297 fps= 76 q=-0.0 size=N/A time=00:07:09.47 bitrate=N/A speed=3.18x    frame=10337 fps= 76 q=-0.0 size=N/A time=00:07:11.13 bitrate=N/A speed=3.18x    frame=10376 fps= 76 q=-0.0 size=N/A time=00:07:12.76 bitrate=N/A speed=3.18x    frame=10415 fps= 76 q=-0.0 size=N/A time=00:07:14.39 bitrate=N/A speed=3.18x    frame=10454 fps= 76 q=-0.0 size=N/A time=00:07:16.01 bitrate=N/A speed=3.18x    frame=10492 fps= 76 q=-0.0 size=N/A time=00:07:17.60 bitrate=N/A speed=3.18x    frame=10531 fps= 76 q=-0.0 size=N/A time=00:07:19.23 bitrate=N/A speed=3.18x    frame=10567 fps= 76 q=-0.0 size=N/A time=00:07:20.73 bitrate=N/A speed=3.17x    frame=10608 fps= 76 q=-0.0 size=N/A time=00:07:22.44 bitrate=N/A speed=3.17x    frame=10647 fps= 76 q=-0.0 size=N/A time=00:07:24.06 bitrate=N/A speed=3.17x    frame=10687 fps= 76 q=-0.0 size=N/A time=00:07:25.73 bitrate=N/A speed=3.17x    frame=10725 fps= 76 q=-0.0 size=N/A time=00:07:27.32 bitrate=N/A speed=3.17x    frame=10764 fps= 76 q=-0.0 size=N/A time=00:07:28.94 bitrate=N/A speed=3.17x    frame=10796 fps= 76 q=-0.0 size=N/A time=00:07:30.28 bitrate=N/A speed=3.17x    frame=10843 fps= 76 q=-0.0 size=N/A time=00:07:32.24 bitrate=N/A speed=3.17x    frame=10882 fps= 76 q=-0.0 size=N/A time=00:07:33.87 bitrate=N/A speed=3.17x    frame=10913 fps= 76 q=-0.0 size=N/A time=00:07:35.16 bitrate=N/A speed=3.17x    frame=10959 fps= 76 q=-0.0 size=N/A time=00:07:37.08 bitrate=N/A speed=3.17x    frame=10995 fps= 76 q=-0.0 size=N/A time=00:07:38.58 bitrate=N/A speed=3.17x    frame=11037 fps= 76 q=-0.0 size=N/A time=00:07:40.33 bitrate=N/A speed=3.17x    frame=11073 fps= 76 q=-0.0 size=N/A time=00:07:41.83 bitrate=N/A speed=3.17x    frame=11116 fps= 76 q=-0.0 size=N/A time=00:07:43.62 bitrate=N/A speed=3.17x    frame=11154 fps= 76 q=-0.0 size=N/A time=00:07:45.21 bitrate=N/A speed=3.17x    frame=11194 fps= 76 q=-0.0 size=N/A time=00:07:46.88 bitrate=N/A speed=3.17x    frame=11233 fps= 76 q=-0.0 size=N/A time=00:07:48.50 bitrate=N/A speed=3.17x    frame=11272 fps= 76 q=-0.0 size=N/A time=00:07:50.13 bitrate=N/A speed=3.17x    frame=11313 fps= 76 q=-0.0 size=N/A time=00:07:51.84 bitrate=N/A speed=3.17x    frame=11351 fps= 76 q=-0.0 size=N/A time=00:07:53.43 bitrate=N/A speed=3.17x    frame=11389 fps= 76 q=-0.0 size=N/A time=00:07:55.01 bitrate=N/A speed=3.17x    frame=11430 fps= 76 q=-0.0 size=N/A time=00:07:56.72 bitrate=N/A speed=3.17x    frame=11465 fps= 76 q=-0.0 size=N/A time=00:07:58.18 bitrate=N/A speed=3.17x    frame=11506 fps= 76 q=-0.0 size=N/A time=00:07:59.89 bitrate=N/A speed=3.17x    frame=11545 fps= 76 q=-0.0 size=N/A time=00:08:01.52 bitrate=N/A speed=3.17x    frame=11582 fps= 76 q=-0.0 size=N/A time=00:08:03.06 bitrate=N/A speed=3.17x    frame=11620 fps= 76 q=-0.0 size=N/A time=00:08:04.65 bitrate=N/A speed=3.17x    frame=11658 fps= 76 q=-0.0 size=N/A time=00:08:06.23 bitrate=N/A speed=3.17x    frame=11697 fps= 76 q=-0.0 size=N/A time=00:08:07.86 bitrate=N/A speed=3.17x    frame=11736 fps= 76 q=-0.0 size=N/A time=00:08:09.48 bitrate=N/A speed=3.17x    frame=11776 fps= 76 q=-0.0 size=N/A time=00:08:11.15 bitrate=N/A speed=3.17x    frame=11815 fps= 76 q=-0.0 size=N/A time=00:08:12.78 bitrate=N/A speed=3.17x    frame=11855 fps= 76 q=-0.0 size=N/A time=00:08:14.45 bitrate=N/A speed=3.17x    frame=11891 fps= 76 q=-0.0 size=N/A time=00:08:15.95 bitrate=N/A speed=3.17x    frame=11933 fps= 76 q=-0.0 size=N/A time=00:08:17.70 bitrate=N/A speed=3.17x    frame=11972 fps= 76 q=-0.0 size=N/A time=00:08:19.33 bitrate=N/A speed=3.17x    frame=12010 fps= 76 q=-0.0 size=N/A time=00:08:20.91 bitrate=N/A speed=3.17x    frame=12047 fps= 76 q=-0.0 size=N/A time=00:08:22.46 bitrate=N/A speed=3.17x    frame=12088 fps= 76 q=-0.0 size=N/A time=00:08:24.17 bitrate=N/A speed=3.17x    frame=12126 fps= 76 q=-0.0 size=N/A time=00:08:25.75 bitrate=N/A speed=3.17x    frame=12165 fps= 76 q=-0.0 size=N/A time=00:08:27.38 bitrate=N/A speed=3.17x    frame=12205 fps= 76 q=-0.0 size=N/A time=00:08:29.05 bitrate=N/A speed=3.17x    frame=12244 fps= 76 q=-0.0 size=N/A time=00:08:30.67 bitrate=N/A speed=3.17x    frame=12284 fps= 76 q=-0.0 size=N/A time=00:08:32.34 bitrate=N/A speed=3.17x    frame=12317 fps= 76 q=-0.0 size=N/A time=00:08:33.72 bitrate=N/A speed=3.17x    frame=12360 fps= 76 q=-0.0 size=N/A time=00:08:35.51 bitrate=N/A speed=3.17x    frame=12398 fps= 76 q=-0.0 size=N/A time=00:08:37.09 bitrate=N/A speed=3.17x    frame=12440 fps= 76 q=-0.0 size=N/A time=00:08:38.85 bitrate=N/A speed=3.17x    frame=12480 fps= 76 q=-0.0 size=N/A time=00:08:40.52 bitrate=N/A speed=3.17x    frame=12514 fps= 76 q=-0.0 size=N/A time=00:08:41.93 bitrate=N/A speed=3.17x    frame=12559 fps= 76 q=-0.0 size=N/A time=00:08:43.81 bitrate=N/A speed=3.17x    frame=12598 fps= 76 q=-0.0 size=N/A time=00:08:45.44 bitrate=N/A speed=3.17x    frame=12636 fps= 76 q=-0.0 size=N/A time=00:08:47.02 bitrate=N/A speed=3.17x    frame=12671 fps= 76 q=-0.0 size=N/A time=00:08:48.48 bitrate=N/A speed=3.17x    frame=12717 fps= 76 q=-0.0 size=N/A time=00:08:50.40 bitrate=N/A speed=3.17x    frame=12757 fps= 76 q=-0.0 size=N/A time=00:08:52.07 bitrate=N/A speed=3.17x    frame=12795 fps= 76 q=-0.0 size=N/A time=00:08:53.65 bitrate=N/A speed=3.17x    frame=12836 fps= 76 q=-0.0 size=N/A time=00:08:55.36 bitrate=N/A speed=3.17x    frame=12873 fps= 76 q=-0.0 size=N/A time=00:08:56.91 bitrate=N/A speed=3.17x    frame=12912 fps= 76 q=-0.0 size=N/A time=00:08:58.53 bitrate=N/A speed=3.17x    frame=12951 fps= 76 q=-0.0 size=N/A time=00:09:00.16 bitrate=N/A speed=3.17x    frame=12987 fps= 76 q=-0.0 size=N/A time=00:09:01.66 bitrate=N/A speed=3.17x    frame=13031 fps= 76 q=-0.0 size=N/A time=00:09:03.50 bitrate=N/A speed=3.17x    frame=13069 fps= 76 q=-0.0 size=N/A time=00:09:05.08 bitrate=N/A speed=3.17x    frame=13096 fps= 76 q=-0.0 size=N/A time=00:09:06.21 bitrate=N/A speed=3.17x    frame=13148 fps= 76 q=-0.0 size=N/A time=00:09:08.38 bitrate=N/A speed=3.17x    frame=13180 fps= 76 q=-0.0 size=N/A time=00:09:09.71 bitrate=N/A speed=3.17x    frame=13227 fps= 76 q=-0.0 size=N/A time=00:09:11.67 bitrate=N/A speed=3.17x    frame=13265 fps= 76 q=-0.0 size=N/A time=00:09:13.26 bitrate=N/A speed=3.17x    frame=13296 fps= 76 q=-0.0 size=N/A time=00:09:14.55 bitrate=N/A speed=3.17x    frame=13343 fps= 76 q=-0.0 size=N/A time=00:09:16.51 bitrate=N/A speed=3.17x    frame=13383 fps= 76 q=-0.0 size=N/A time=00:09:18.18 bitrate=N/A speed=3.17x    frame=13418 fps= 76 q=-0.0 size=N/A time=00:09:19.64 bitrate=N/A speed=3.17x    frame=13452 fps= 76 q=-0.0 size=N/A time=00:09:21.06 bitrate=N/A speed=3.17x    frame=13497 fps= 76 q=-0.0 size=N/A time=00:09:22.93 bitrate=N/A speed=3.17x    frame=13542 fps= 76 q=-0.0 size=N/A time=00:09:24.81 bitrate=N/A speed=3.17x    frame=13578 fps= 76 q=-0.0 size=N/A time=00:09:26.31 bitrate=N/A speed=3.17x    frame=13622 fps= 76 q=-0.0 size=N/A time=00:09:28.15 bitrate=N/A speed=3.17x    frame=13650 fps= 76 q=-0.0 size=N/A time=00:09:29.31 bitrate=N/A speed=3.17x    frame=13699 fps= 76 q=-0.0 size=N/A time=00:09:31.36 bitrate=N/A speed=3.17x    frame=13734 fps= 76 q=-0.0 size=N/A time=00:09:32.82 bitrate=N/A speed=3.17x    frame=13778 fps= 76 q=-0.0 size=N/A time=00:09:34.65 bitrate=N/A speed=3.17x    frame=13816 fps= 76 q=-0.0 size=N/A time=00:09:36.24 bitrate=N/A speed=3.17x    frame=13857 fps= 76 q=-0.0 size=N/A time=00:09:37.95 bitrate=N/A speed=3.17x    frame=13893 fps= 76 q=-0.0 size=N/A time=00:09:39.45 bitrate=N/A speed=3.17x    frame=13938 fps= 76 q=-0.0 size=N/A time=00:09:41.33 bitrate=N/A speed=3.17x    frame=13977 fps= 76 q=-0.0 size=N/A time=00:09:42.95 bitrate=N/A speed=3.17x    frame=14016 fps= 76 q=-0.0 size=N/A time=00:09:44.58 bitrate=N/A speed=3.17x    frame=14054 fps= 76 q=-0.0 size=N/A time=00:09:46.16 bitrate=N/A speed=3.17x    frame=14093 fps= 76 q=-0.0 size=N/A time=00:09:47.79 bitrate=N/A speed=3.17x    frame=14133 fps= 76 q=-0.0 size=N/A time=00:09:49.46 bitrate=N/A speed=3.17x    frame=14165 fps= 76 q=-0.0 size=N/A time=00:09:50.79 bitrate=N/A speed=3.17x    frame=14209 fps= 76 q=-0.0 size=N/A time=00:09:52.63 bitrate=N/A speed=3.17x    frame=14244 fps= 76 q=-0.0 size=N/A time=00:09:54.09 bitrate=N/A speed=3.17x    frame=14286 fps= 76 q=-0.0 size=N/A time=00:09:55.84 bitrate=N/A speed=3.17x    frame=14324 fps= 76 q=-0.0 size=N/A time=00:09:57.43 bitrate=N/A speed=3.17x    frame=14361 fps= 76 q=-0.0 size=N/A time=00:09:58.97 bitrate=N/A speed=3.17x    frame=14401 fps= 76 q=-0.0 size=N/A time=00:10:00.64 bitrate=N/A speed=3.17x    frame=14440 fps= 76 q=-0.0 size=N/A time=00:10:02.26 bitrate=N/A speed=3.17x    frame=14478 fps= 76 q=-0.0 size=N/A time=00:10:03.85 bitrate=N/A speed=3.17x    frame=14508 fps= 76 q=-0.0 size=N/A time=00:10:05.10 bitrate=N/A speed=3.17x    frame=14550 fps= 76 q=-0.0 size=N/A time=00:10:06.85 bitrate=N/A speed=3.17x    frame=14594 fps= 76 q=-0.0 size=N/A time=00:10:08.69 bitrate=N/A speed=3.17x    frame=14631 fps= 76 q=-0.0 size=N/A time=00:10:10.23 bitrate=N/A speed=3.17x    frame=14671 fps= 76 q=-0.0 size=N/A time=00:10:11.90 bitrate=N/A speed=3.17x    frame=14707 fps= 76 q=-0.0 size=N/A time=00:10:13.40 bitrate=N/A speed=3.17x    frame=14748 fps= 76 q=-0.0 size=N/A time=00:10:15.11 bitrate=N/A speed=3.17x    frame=14787 fps= 76 q=-0.0 size=N/A time=00:10:16.74 bitrate=N/A speed=3.17x    frame=14814 fps= 76 q=-0.0 size=N/A time=00:10:17.86 bitrate=N/A speed=3.17x    frame=14858 fps= 76 q=-0.0 size=N/A time=00:10:19.70 bitrate=N/A speed=3.17x    frame=14904 fps= 76 q=-0.0 size=N/A time=00:10:21.62 bitrate=N/A speed=3.17x    frame=14944 fps= 76 q=-0.0 size=N/A time=00:10:23.28 bitrate=N/A speed=3.17x    frame=14983 fps= 76 q=-0.0 size=N/A time=00:10:24.91 bitrate=N/A speed=3.17x    frame=15016 fps= 76 q=-0.0 size=N/A time=00:10:26.29 bitrate=N/A speed=3.17x    frame=15062 fps= 76 q=-0.0 size=N/A time=00:10:28.21 bitrate=N/A speed=3.17x    frame=15101 fps= 76 q=-0.0 size=N/A time=00:10:29.83 bitrate=N/A speed=3.17x    frame=15129 fps= 76 q=-0.0 size=N/A time=00:10:31.00 bitrate=N/A speed=3.17x    frame=15179 fps= 76 q=-0.0 size=N/A time=00:10:33.09 bitrate=N/A speed=3.17x    frame=15218 fps= 76 q=-0.0 size=N/A time=00:10:34.71 bitrate=N/A speed=3.17x    frame=15257 fps= 76 q=-0.0 size=N/A time=00:10:36.34 bitrate=N/A speed=3.17x    frame=15296 fps= 76 q=-0.0 size=N/A time=00:10:37.97 bitrate=N/A speed=3.17x    frame=15334 fps= 76 q=-0.0 size=N/A time=00:10:39.55 bitrate=N/A speed=3.17x    frame=15370 fps= 76 q=-0.0 size=N/A time=00:10:41.05 bitrate=N/A speed=3.17x    frame=15415 fps= 76 q=-0.0 size=N/A time=00:10:42.93 bitrate=N/A speed=3.17x    frame=15451 fps= 76 q=-0.0 size=N/A time=00:10:44.43 bitrate=N/A speed=3.17x    frame=15494 fps= 76 q=-0.0 size=N/A time=00:10:46.22 bitrate=N/A speed=3.17x    frame=15533 fps= 76 q=-0.0 size=N/A time=00:10:47.85 bitrate=N/A speed=3.17x    frame=15574 fps= 76 q=-0.0 size=N/A time=00:10:49.56 bitrate=N/A speed=3.17x    frame=15612 fps= 76 q=-0.0 size=N/A time=00:10:51.15 bitrate=N/A speed=3.17x    frame=15653 fps= 76 q=-0.0 size=N/A time=00:10:52.86 bitrate=N/A speed=3.17x    frame=15691 fps= 76 q=-0.0 size=N/A time=00:10:54.44 bitrate=N/A speed=3.17x    frame=15727 fps= 76 q=-0.0 size=N/A time=00:10:55.94 bitrate=N/A speed=3.17x    frame=15770 fps= 76 q=-0.0 size=N/A time=00:10:57.74 bitrate=N/A speed=3.17x    frame=15809 fps= 76 q=-0.0 size=N/A time=00:10:59.36 bitrate=N/A speed=3.17x    frame=15844 fps= 76 q=-0.0 size=N/A time=00:11:00.82 bitrate=N/A speed=3.17x    frame=15888 fps= 76 q=-0.0 size=N/A time=00:11:02.66 bitrate=N/A speed=3.17x    frame=15927 fps= 76 q=-0.0 size=N/A time=00:11:04.28 bitrate=N/A speed=3.17x    frame=15967 fps= 76 q=-0.0 size=N/A time=00:11:05.95 bitrate=N/A speed=3.17x    frame=15996 fps= 76 q=-0.0 size=N/A time=00:11:07.16 bitrate=N/A speed=3.17x    frame=16042 fps= 76 q=-0.0 size=N/A time=00:11:09.08 bitrate=N/A speed=3.17x    frame=16085 fps= 76 q=-0.0 size=N/A time=00:11:10.87 bitrate=N/A speed=3.17x    frame=16122 fps= 76 q=-0.0 size=N/A time=00:11:12.42 bitrate=N/A speed=3.17x    frame=16164 fps= 76 q=-0.0 size=N/A time=00:11:14.17 bitrate=N/A speed=3.17x    frame=16204 fps= 76 q=-0.0 size=N/A time=00:11:15.84 bitrate=N/A speed=3.17x    frame=16233 fps= 76 q=-0.0 size=N/A time=00:11:17.05 bitrate=N/A speed=3.17x    frame=16283 fps= 76 q=-0.0 size=N/A time=00:11:19.13 bitrate=N/A speed=3.17x    frame=16314 fps= 76 q=-0.0 size=N/A time=00:11:20.42 bitrate=N/A speed=3.17x    frame=16363 fps= 76 q=-0.0 size=N/A time=00:11:22.47 bitrate=N/A speed=3.17x    frame=16396 fps= 76 q=-0.0 size=N/A time=00:11:23.84 bitrate=N/A speed=3.17x    frame=16442 fps= 76 q=-0.0 size=N/A time=00:11:25.76 bitrate=N/A speed=3.17x    frame=16481 fps= 76 q=-0.0 size=N/A time=00:11:27.39 bitrate=N/A speed=3.17x    frame=16521 fps= 76 q=-0.0 size=N/A time=00:11:29.06 bitrate=N/A speed=3.17x    frame=16559 fps= 76 q=-0.0 size=N/A time=00:11:30.64 bitrate=N/A speed=3.17x    frame=16593 fps= 76 q=-0.0 size=N/A time=00:11:32.06 bitrate=N/A speed=3.17x    frame=16637 fps= 76 q=-0.0 size=N/A time=00:11:33.90 bitrate=N/A speed=3.17x    frame=16667 fps= 76 q=-0.0 size=N/A time=00:11:35.15 bitrate=N/A speed=3.17x    frame=16715 fps= 76 q=-0.0 size=N/A time=00:11:37.15 bitrate=N/A speed=3.17x    frame=16755 fps= 76 q=-0.0 size=N/A time=00:11:38.82 bitrate=N/A speed=3.17x    frame=16794 fps= 76 q=-0.0 size=N/A time=00:11:40.44 bitrate=N/A speed=3.17x    frame=16833 fps= 76 q=-0.0 size=N/A time=00:11:42.07 bitrate=N/A speed=3.17x    frame=16869 fps= 76 q=-0.0 size=N/A time=00:11:43.57 bitrate=N/A speed=3.17x    frame=16905 fps= 76 q=-0.0 size=N/A time=00:11:45.07 bitrate=N/A speed=3.17x    frame=16951 fps= 76 q=-0.0 size=N/A time=00:11:46.99 bitrate=N/A speed=3.17x    frame=16989 fps= 76 q=-0.0 size=N/A time=00:11:48.58 bitrate=N/A speed=3.17x    frame=17028 fps= 76 q=-0.0 size=N/A time=00:11:50.20 bitrate=N/A speed=3.17x    frame=17068 fps= 76 q=-0.0 size=N/A time=00:11:51.87 bitrate=N/A speed=3.17x    frame=17108 fps= 76 q=-0.0 size=N/A time=00:11:53.54 bitrate=N/A speed=3.17x    frame=17142 fps= 76 q=-0.0 size=N/A time=00:11:54.96 bitrate=N/A speed=3.17x    frame=17186 fps= 76 q=-0.0 size=N/A time=00:11:56.79 bitrate=N/A speed=3.17x    frame=17220 fps= 76 q=-0.0 size=N/A time=00:11:58.21 bitrate=N/A speed=3.17x    frame=17255 fps= 76 q=-0.0 size=N/A time=00:11:59.67 bitrate=N/A speed=3.17x    frame=17304 fps= 76 q=-0.0 size=N/A time=00:12:01.72 bitrate=N/A speed=3.17x    frame=17344 fps= 76 q=-0.0 size=N/A time=00:12:03.38 bitrate=N/A speed=3.17x    frame=17383 fps= 76 q=-0.0 size=N/A time=00:12:05.01 bitrate=N/A speed=3.17x    frame=17422 fps= 76 q=-0.0 size=N/A time=00:12:06.64 bitrate=N/A speed=3.17x    frame=17461 fps= 76 q=-0.0 size=N/A time=00:12:08.26 bitrate=N/A speed=3.17x    frame=17501 fps= 76 q=-0.0 size=N/A time=00:12:09.93 bitrate=N/A speed=3.17x    frame=17535 fps= 76 q=-0.0 size=N/A time=00:12:11.35 bitrate=N/A speed=3.17x    frame=17581 fps= 76 q=-0.0 size=N/A time=00:12:13.27 bitrate=N/A speed=3.17x    frame=17614 fps= 76 q=-0.0 size=N/A time=00:12:14.65 bitrate=N/A speed=3.17x    frame=17660 fps= 76 q=-0.0 size=N/A time=00:12:16.56 bitrate=N/A speed=3.17x    frame=17700 fps= 76 q=-0.0 size=N/A time=00:12:18.23 bitrate=N/A speed=3.17x    frame=17740 fps= 76 q=-0.0 size=N/A time=00:12:19.90 bitrate=N/A speed=3.17x    frame=17772 fps= 76 q=-0.0 size=N/A time=00:12:21.24 bitrate=N/A speed=3.17x    frame=17819 fps= 76 q=-0.0 size=N/A time=00:12:23.20 bitrate=N/A speed=3.17x    frame=17858 fps= 76 q=-0.0 size=N/A time=00:12:24.82 bitrate=N/A speed=3.17x    frame=17899 fps= 76 q=-0.0 size=N/A time=00:12:26.53 bitrate=N/A speed=3.17x    frame=17932 fps= 76 q=-0.0 size=N/A time=00:12:27.91 bitrate=N/A speed=3.17x    frame=17978 fps= 76 q=-0.0 size=N/A time=00:12:29.83 bitrate=N/A speed=3.17x    frame=18015 fps= 76 q=-0.0 size=N/A time=00:12:31.37 bitrate=N/A speed=3.17x    frame=18057 fps= 76 q=-0.0 size=N/A time=00:12:33.12 bitrate=N/A speed=3.17x    frame=18089 fps= 76 q=-0.0 size=N/A time=00:12:34.46 bitrate=N/A speed=3.17x    frame=18132 fps= 76 q=-0.0 size=N/A time=00:12:36.25 bitrate=N/A speed=3.17x    frame=18174 fps= 76 q=-0.0 size=N/A time=00:12:38.00 bitrate=N/A speed=3.17x    frame=18212 fps= 76 q=-0.0 size=N/A time=00:12:39.59 bitrate=N/A speed=3.17x    frame=18253 fps= 76 q=-0.0 size=N/A time=00:12:41.30 bitrate=N/A speed=3.17x    frame=18293 fps= 76 q=-0.0 size=N/A time=00:12:42.97 bitrate=N/A speed=3.17x    frame=18320 fps= 76 q=-0.0 size=N/A time=00:12:44.09 bitrate=N/A speed=3.17x    frame=18368 fps= 76 q=-0.0 size=N/A time=00:12:46.09 bitrate=N/A speed=3.17x    frame=18411 fps= 76 q=-0.0 size=N/A time=00:12:47.89 bitrate=N/A speed=3.17x    frame=18450 fps= 76 q=-0.0 size=N/A time=00:12:49.51 bitrate=N/A speed=3.17x    frame=18489 fps= 76 q=-0.0 size=N/A time=00:12:51.14 bitrate=N/A speed=3.17x    frame=18530 fps= 76 q=-0.0 size=N/A time=00:12:52.85 bitrate=N/A speed=3.17x    frame=18569 fps= 76 q=-0.0 size=N/A time=00:12:54.48 bitrate=N/A speed=3.17x    frame=18608 fps= 76 q=-0.0 size=N/A time=00:12:56.10 bitrate=N/A speed=3.17x    frame=18641 fps= 76 q=-0.0 size=N/A time=00:12:57.48 bitrate=N/A speed=3.17x    frame=18687 fps= 76 q=-0.0 size=N/A time=00:12:59.40 bitrate=N/A speed=3.17x    frame=18727 fps= 76 q=-0.0 size=N/A time=00:13:01.07 bitrate=N/A speed=3.17x    frame=18759 fps= 76 q=-0.0 size=N/A time=00:13:02.40 bitrate=N/A speed=3.17x    frame=18806 fps= 76 q=-0.0 size=N/A time=00:13:04.36 bitrate=N/A speed=3.17x    frame=18837 fps= 76 q=-0.0 size=N/A time=00:13:05.65 bitrate=N/A speed=3.17x    frame=18885 fps= 76 q=-0.0 size=N/A time=00:13:07.66 bitrate=N/A speed=3.17x    frame=18924 fps= 76 q=-0.0 size=N/A time=00:13:09.28 bitrate=N/A speed=3.17x    frame=18964 fps= 76 q=-0.0 size=N/A time=00:13:10.95 bitrate=N/A speed=3.17x    frame=19003 fps= 76 q=-0.0 size=N/A time=00:13:12.58 bitrate=N/A speed=3.17x    frame=19043 fps= 76 q=-0.0 size=N/A time=00:13:14.25 bitrate=N/A speed=3.17x    frame=19083 fps= 76 q=-0.0 size=N/A time=00:13:15.92 bitrate=N/A speed=3.17x    frame=19123 fps= 76 q=-0.0 size=N/A time=00:13:17.58 bitrate=N/A speed=3.17x    frame=19155 fps= 76 q=-0.0 size=N/A time=00:13:18.92 bitrate=N/A speed=3.17x    frame=19198 fps= 76 q=-0.0 size=N/A time=00:13:20.71 bitrate=N/A speed=3.17x    frame=19242 fps= 76 q=-0.0 size=N/A time=00:13:22.55 bitrate=N/A speed=3.17x    frame=19281 fps= 76 q=-0.0 size=N/A time=00:13:24.17 bitrate=N/A speed=3.17x    frame=19313 fps= 76 q=-0.0 size=N/A time=00:13:25.51 bitrate=N/A speed=3.17x    frame=19361 fps= 76 q=-0.0 size=N/A time=00:13:27.51 bitrate=N/A speed=3.17x    frame=19400 fps= 76 q=-0.0 size=N/A time=00:13:29.14 bitrate=N/A speed=3.17x    frame=19439 fps= 76 q=-0.0 size=N/A time=00:13:30.76 bitrate=N/A speed=3.17x    frame=19479 fps= 76 q=-0.0 size=N/A time=00:13:32.43 bitrate=N/A speed=3.17x    frame=19512 fps= 76 q=-0.0 size=N/A time=00:13:33.81 bitrate=N/A speed=3.17x    frame=19557 fps= 76 q=-0.0 size=N/A time=00:13:35.68 bitrate=N/A speed=3.17x    frame=19593 fps= 76 q=-0.0 size=N/A time=00:13:37.19 bitrate=N/A speed=3.17x    frame=19638 fps= 76 q=-0.0 size=N/A time=00:13:39.06 bitrate=N/A speed=3.17x    frame=19670 fps= 76 q=-0.0 size=N/A time=00:13:40.40 bitrate=N/A speed=3.17x    frame=19718 fps= 76 q=-0.0 size=N/A time=00:13:42.40 bitrate=N/A speed=3.17x    frame=19758 fps= 76 q=-0.0 size=N/A time=00:13:44.07 bitrate=N/A speed=3.17x    frame=19795 fps= 76 q=-0.0 size=N/A time=00:13:45.61 bitrate=N/A speed=3.17x    frame=19825 fps= 76 q=-0.0 size=N/A time=00:13:46.86 bitrate=N/A speed=3.17x    frame=19871 fps= 76 q=-0.0 size=N/A time=00:13:48.78 bitrate=N/A speed=3.17x    frame=19907 fps= 76 q=-0.0 size=N/A time=00:13:50.28 bitrate=N/A speed=3.17x    frame=19952 fps= 76 q=-0.0 size=N/A time=00:13:52.16 bitrate=N/A speed=3.17x    frame=19986 fps= 76 q=-0.0 size=N/A time=00:13:53.58 bitrate=N/A speed=3.17x    frame=20031 fps= 76 q=-0.0 size=N/A time=00:13:55.45 bitrate=N/A speed=3.17x    frame=20067 fps= 76 q=-0.0 size=N/A time=00:13:56.96 bitrate=N/A speed=3.17x    frame=20111 fps= 76 q=-0.0 size=N/A time=00:13:58.79 bitrate=N/A speed=3.17x    frame=20151 fps= 76 q=-0.0 size=N/A time=00:14:00.46 bitrate=N/A speed=3.17x    frame=20184 fps= 76 q=-0.0 size=N/A time=00:14:01.84 bitrate=N/A speed=3.17x    frame=20229 fps= 76 q=-0.0 size=N/A time=00:14:03.71 bitrate=N/A speed=3.17x    frame=20268 fps= 76 q=-0.0 size=N/A time=00:14:05.34 bitrate=N/A speed=3.17x    frame=20300 fps= 76 q=-0.0 size=N/A time=00:14:06.67 bitrate=N/A speed=3.17x    frame=20347 fps= 76 q=-0.0 size=N/A time=00:14:08.63 bitrate=N/A speed=3.18x    frame=20386 fps= 76 q=-0.0 size=N/A time=00:14:10.26 bitrate=N/A speed=3.17x    frame=20425 fps= 76 q=-0.0 size=N/A time=00:14:11.89 bitrate=N/A speed=3.17x    frame=20462 fps= 76 q=-0.0 size=N/A time=00:14:13.43 bitrate=N/A speed=3.17x    frame=20504 fps= 76 q=-0.0 size=N/A time=00:14:15.18 bitrate=N/A speed=3.18x    frame=20543 fps= 76 q=-0.0 size=N/A time=00:14:16.81 bitrate=N/A speed=3.18x    frame=20582 fps= 76 q=-0.0 size=N/A time=00:14:18.44 bitrate=N/A speed=3.17x    frame=20610 fps= 76 q=-0.0 size=N/A time=00:14:19.60 bitrate=N/A speed=3.17x    frame=20661 fps= 76 q=-0.0 size=N/A time=00:14:21.73 bitrate=N/A speed=3.17x    frame=20700 fps= 76 q=-0.0 size=N/A time=00:14:23.36 bitrate=N/A speed=3.17x    frame=20741 fps= 76 q=-0.0 size=N/A time=00:14:25.07 bitrate=N/A speed=3.18x    frame=20780 fps= 76 q=-0.0 size=N/A time=00:14:26.69 bitrate=N/A speed=3.18x    frame=20819 fps= 76 q=-0.0 size=N/A time=00:14:28.32 bitrate=N/A speed=3.18x    frame=20856 fps= 76 q=-0.0 size=N/A time=00:14:29.86 bitrate=N/A speed=3.17x    frame=20898 fps= 76 q=-0.0 size=N/A time=00:14:31.62 bitrate=N/A speed=3.18x    frame=20938 fps= 76 q=-0.0 size=N/A time=00:14:33.28 bitrate=N/A speed=3.18x    frame=20973 fps= 76 q=-0.0 size=N/A time=00:14:34.74 bitrate=N/A speed=3.17x    frame=21017 fps= 76 q=-0.0 size=N/A time=00:14:36.58 bitrate=N/A speed=3.18x    frame=21053 fps= 76 q=-0.0 size=N/A time=00:14:38.08 bitrate=N/A speed=3.17x    frame=21096 fps= 76 q=-0.0 size=N/A time=00:14:39.87 bitrate=N/A speed=3.18x    frame=21137 fps= 76 q=-0.0 size=N/A time=00:14:41.58 bitrate=N/A speed=3.18x    frame=21176 fps= 76 q=-0.0 size=N/A time=00:14:43.21 bitrate=N/A speed=3.18x    frame=21212 fps= 76 q=-0.0 size=N/A time=00:14:44.71 bitrate=N/A speed=3.18x    frame=21255 fps= 76 q=-0.0 size=N/A time=00:14:46.51 bitrate=N/A speed=3.18x    frame=21296 fps= 76 q=-0.0 size=N/A time=00:14:48.22 bitrate=N/A speed=3.18x    frame=21335 fps= 76 q=-0.0 size=N/A time=00:14:49.84 bitrate=N/A speed=3.18x    frame=21368 fps= 76 q=-0.0 size=N/A time=00:14:51.22 bitrate=N/A speed=3.18x    frame=21414 fps= 76 q=-0.0 size=N/A time=00:14:53.14 bitrate=N/A speed=3.18x    frame=21454 fps= 76 q=-0.0 size=N/A time=00:14:54.81 bitrate=N/A speed=3.18x    frame=21493 fps= 76 q=-0.0 size=N/A time=00:14:56.43 bitrate=N/A speed=3.18x    frame=21532 fps= 76 q=-0.0 size=N/A time=00:14:58.06 bitrate=N/A speed=3.18x    frame=21571 fps= 76 q=-0.0 size=N/A time=00:14:59.69 bitrate=N/A speed=3.18x    frame=21610 fps= 76 q=-0.0 size=N/A time=00:15:01.31 bitrate=N/A speed=3.18x    frame=21651 fps= 76 q=-0.0 size=N/A time=00:15:03.02 bitrate=N/A speed=3.18x    frame=21690 fps= 76 q=-0.0 size=N/A time=00:15:04.65 bitrate=N/A speed=3.18x    frame=21729 fps= 76 q=-0.0 size=N/A time=00:15:06.28 bitrate=N/A speed=3.18x    frame=21769 fps= 76 q=-0.0 size=N/A time=00:15:07.94 bitrate=N/A speed=3.18x    frame=21802 fps= 76 q=-0.0 size=N/A time=00:15:09.32 bitrate=N/A speed=3.18x    frame=21850 fps= 76 q=-0.0 size=N/A time=00:15:11.32 bitrate=N/A speed=3.18x    frame=21889 fps= 76 q=-0.0 size=N/A time=00:15:12.95 bitrate=N/A speed=3.18x    frame=21929 fps= 76 q=-0.0 size=N/A time=00:15:14.62 bitrate=N/A speed=3.18x    frame=21968 fps= 76 q=-0.0 size=N/A time=00:15:16.24 bitrate=N/A speed=3.18x    frame=22007 fps= 76 q=-0.0 size=N/A time=00:15:17.87 bitrate=N/A speed=3.18x    frame=22043 fps= 76 q=-0.0 size=N/A time=00:15:19.37 bitrate=N/A speed=3.18x    frame=22078 fps= 76 q=-0.0 size=N/A time=00:15:20.83 bitrate=N/A speed=3.18x    frame=22125 fps= 76 q=-0.0 size=N/A time=00:15:22.79 bitrate=N/A speed=3.18x    frame=22163 fps= 76 q=-0.0 size=N/A time=00:15:24.38 bitrate=N/A speed=3.18x    frame=22189 fps= 76 q=-0.0 size=N/A time=00:15:25.46 bitrate=N/A speed=3.17x    frame=22234 fps= 76 q=-0.0 size=N/A time=00:15:27.34 bitrate=N/A speed=3.18x    frame=22282 fps= 76 q=-0.0 size=N/A time=00:15:29.34 bitrate=N/A speed=3.18x    frame=22319 fps= 76 q=-0.0 size=N/A time=00:15:30.88 bitrate=N/A speed=3.18x    frame=22357 fps= 76 q=-0.0 size=N/A time=00:15:32.47 bitrate=N/A speed=3.18x    frame=22396 fps= 76 q=-0.0 size=N/A time=00:15:34.09 bitrate=N/A speed=3.18x    frame=22435 fps= 76 q=-0.0 size=N/A time=00:15:35.72 bitrate=N/A speed=3.18x    frame=22475 fps= 76 q=-0.0 size=N/A time=00:15:37.39 bitrate=N/A speed=3.18x    frame=22510 fps= 76 q=-0.0 size=N/A time=00:15:38.85 bitrate=N/A speed=3.18x    frame=22555 fps= 76 q=-0.0 size=N/A time=00:15:40.73 bitrate=N/A speed=3.18x    frame=22594 fps= 76 q=-0.0 size=N/A time=00:15:42.35 bitrate=N/A speed=3.18x    frame=22632 fps= 76 q=-0.0 size=N/A time=00:15:43.94 bitrate=N/A speed=3.18x    frame=22676 fps= 76 q=-0.0 size=N/A time=00:15:45.77 bitrate=N/A speed=3.18x    frame=22711 fps= 76 q=-0.0 size=N/A time=00:15:47.23 bitrate=N/A speed=3.18x    frame=22755 fps= 76 q=-0.0 size=N/A time=00:15:49.07 bitrate=N/A speed=3.18x    frame=22794 fps= 76 q=-0.0 size=N/A time=00:15:50.69 bitrate=N/A speed=3.18x    frame=22830 fps= 76 q=-0.0 size=N/A time=00:15:52.20 bitrate=N/A speed=3.18x    frame=22869 fps= 76 q=-0.0 size=N/A time=00:15:53.82 bitrate=N/A speed=3.18x    frame=22912 fps= 76 q=-0.0 size=N/A time=00:15:55.62 bitrate=N/A speed=3.18x    frame=22951 fps= 76 q=-0.0 size=N/A time=00:15:57.24 bitrate=N/A speed=3.18x    frame=22991 fps= 76 q=-0.0 size=N/A time=00:15:58.91 bitrate=N/A speed=3.18x    frame=23028 fps= 76 q=-0.0 size=N/A time=00:16:00.45 bitrate=N/A speed=3.18x    frame=23071 fps= 76 q=-0.0 size=N/A time=00:16:02.25 bitrate=N/A speed=3.18x    frame=23109 fps= 76 q=-0.0 size=N/A time=00:16:03.83 bitrate=N/A speed=3.18x    frame=23138 fps= 76 q=-0.0 size=N/A time=00:16:05.04 bitrate=N/A speed=3.18x    frame=23183 fps= 76 q=-0.0 size=N/A time=00:16:06.92 bitrate=N/A speed=3.18x    frame=23227 fps= 76 q=-0.0 size=N/A time=00:16:08.75 bitrate=N/A speed=3.18x    frame=23263 fps= 76 q=-0.0 size=N/A time=00:16:10.26 bitrate=N/A speed=3.18x    frame=23305 fps= 76 q=-0.0 size=N/A time=00:16:12.01 bitrate=N/A speed=3.18x    frame=23336 fps= 76 q=-0.0 size=N/A time=00:16:13.30 bitrate=N/A speed=3.18x    frame=23383 fps= 76 q=-0.0 size=N/A time=00:16:15.26 bitrate=N/A speed=3.18x    frame=23423 fps= 76 q=-0.0 size=N/A time=00:16:16.93 bitrate=N/A speed=3.18x    frame=23461 fps= 76 q=-0.0 size=N/A time=00:16:18.51 bitrate=N/A speed=3.18x    frame=23494 fps= 76 q=-0.0 size=N/A time=00:16:19.89 bitrate=N/A speed=3.18x    frame=23539 fps= 76 q=-0.0 size=N/A time=00:16:21.77 bitrate=N/A speed=3.18x    frame=23582 fps= 76 q=-0.0 size=N/A time=00:16:23.56 bitrate=N/A speed=3.18x    frame=23611 fps= 76 q=-0.0 size=N/A time=00:16:24.77 bitrate=N/A speed=3.18x    frame=23656 fps= 76 q=-0.0 size=N/A time=00:16:26.65 bitrate=N/A speed=3.18x    frame=23700 fps= 76 q=-0.0 size=N/A time=00:16:28.48 bitrate=N/A speed=3.18x    frame=23734 fps= 76 q=-0.0 size=N/A time=00:16:29.90 bitrate=N/A speed=3.18x    frame=23780 fps= 76 q=-0.0 size=N/A time=00:16:31.82 bitrate=N/A speed=3.18x    frame=23819 fps= 76 q=-0.0 size=N/A time=00:16:33.45 bitrate=N/A speed=3.18x    frame=23858 fps= 76 q=-0.0 size=N/A time=00:16:35.07 bitrate=N/A speed=3.18x    frame=23896 fps= 76 q=-0.0 size=N/A time=00:16:36.66 bitrate=N/A speed=3.18x    frame=23931 fps= 76 q=-0.0 size=N/A time=00:16:38.12 bitrate=N/A speed=3.18x    frame=23975 fps= 76 q=-0.0 size=N/A time=00:16:39.95 bitrate=N/A speed=3.18x    frame=24017 fps= 76 q=-0.0 size=N/A time=00:16:41.70 bitrate=N/A speed=3.18x    frame=24056 fps= 76 q=-0.0 size=N/A time=00:16:43.33 bitrate=N/A speed=3.18x    frame=24096 fps= 76 q=-0.0 size=N/A time=00:16:45.00 bitrate=N/A speed=3.18x    frame=24135 fps= 76 q=-0.0 size=N/A time=00:16:46.63 bitrate=N/A speed=3.18x    frame=24172 fps= 76 q=-0.0 size=N/A time=00:16:48.17 bitrate=N/A speed=3.18x    frame=24205 fps= 76 q=-0.0 size=N/A time=00:16:49.55 bitrate=N/A speed=3.18x    frame=24255 fps= 76 q=-0.0 size=N/A time=00:16:51.63 bitrate=N/A speed=3.18x    frame=24294 fps= 76 q=-0.0 size=N/A time=00:16:53.26 bitrate=N/A speed=3.18x    frame=24323 fps= 76 q=-0.0 size=N/A time=00:16:54.47 bitrate=N/A speed=3.18x    frame=24366 fps= 76 q=-0.0 size=N/A time=00:16:56.26 bitrate=N/A speed=3.18x    frame=24411 fps= 76 q=-0.0 size=N/A time=00:16:58.14 bitrate=N/A speed=3.18x    frame=24449 fps= 76 q=-0.0 size=N/A time=00:16:59.72 bitrate=N/A speed=3.18x    frame=24489 fps= 76 q=-0.0 size=N/A time=00:17:01.39 bitrate=N/A speed=3.18x    frame=24528 fps= 76 q=-0.0 size=N/A time=00:17:03.02 bitrate=N/A speed=3.18x    frame=24569 fps= 76 q=-0.0 size=N/A time=00:17:04.73 bitrate=N/A speed=3.18x    frame=24609 fps= 76 q=-0.0 size=N/A time=00:17:06.40 bitrate=N/A speed=3.18x    frame=24648 fps= 76 q=-0.0 size=N/A time=00:17:08.02 bitrate=N/A speed=3.18x    frame=24688 fps= 76 q=-0.0 size=N/A time=00:17:09.69 bitrate=N/A speed=3.18x    frame=24721 fps= 76 q=-0.0 size=N/A time=00:17:11.07 bitrate=N/A speed=3.18x    frame=24767 fps= 76 q=-0.0 size=N/A time=00:17:12.99 bitrate=N/A speed=3.18x    frame=24806 fps= 76 q=-0.0 size=N/A time=00:17:14.61 bitrate=N/A speed=3.18x    frame=24846 fps= 76 q=-0.0 size=N/A time=00:17:16.28 bitrate=N/A speed=3.18x    frame=24884 fps= 76 q=-0.0 size=N/A time=00:17:17.87 bitrate=N/A speed=3.18x    frame=24921 fps= 76 q=-0.0 size=N/A time=00:17:19.41 bitrate=N/A speed=3.18x    frame=24962 fps= 76 q=-0.0 size=N/A time=00:17:21.12 bitrate=N/A speed=3.18x    frame=25002 fps= 76 q=-0.0 size=N/A time=00:17:22.79 bitrate=N/A speed=3.18x    frame=25040 fps= 76 q=-0.0 size=N/A time=00:17:24.37 bitrate=N/A speed=3.18x    frame=25079 fps= 76 q=-0.0 size=N/A time=00:17:26.00 bitrate=N/A speed=3.18x    frame=25117 fps= 76 q=-0.0 size=N/A time=00:17:27.58 bitrate=N/A speed=3.18x    frame=25154 fps= 76 q=-0.0 size=N/A time=00:17:29.13 bitrate=N/A speed=3.18x    frame=25187 fps= 76 q=-0.0 size=N/A time=00:17:30.50 bitrate=N/A speed=3.18x    frame=25234 fps= 76 q=-0.0 size=N/A time=00:17:32.46 bitrate=N/A speed=3.18x    frame=25267 fps= 76 q=-0.0 size=N/A time=00:17:33.84 bitrate=N/A speed=3.18x    frame=25313 fps= 76 q=-0.0 size=N/A time=00:17:35.76 bitrate=N/A speed=3.18x    frame=25351 fps= 76 q=-0.0 size=N/A time=00:17:37.34 bitrate=N/A speed=3.18x    frame=25391 fps= 76 q=-0.0 size=N/A time=00:17:39.01 bitrate=N/A speed=3.18x    frame=25428 fps= 76 q=-0.0 size=N/A time=00:17:40.55 bitrate=N/A speed=3.18x    frame=25463 fps= 76 q=-0.0 size=N/A time=00:17:42.01 bitrate=N/A speed=3.18x    frame=25508 fps= 76 q=-0.0 size=N/A time=00:17:43.89 bitrate=N/A speed=3.18x    frame=25548 fps= 76 q=-0.0 size=N/A time=00:17:45.56 bitrate=N/A speed=3.18x    frame=25584 fps= 76 q=-0.0 size=N/A time=00:17:47.06 bitrate=N/A speed=3.18x    frame=25617 fps= 76 q=-0.0 size=N/A time=00:17:48.44 bitrate=N/A speed=3.18x    frame=25667 fps= 76 q=-0.0 size=N/A time=00:17:50.52 bitrate=N/A speed=3.18x    frame=25705 fps= 76 q=-0.0 size=N/A time=00:17:52.11 bitrate=N/A speed=3.18x    frame=25745 fps= 76 q=-0.0 size=N/A time=00:17:53.78 bitrate=N/A speed=3.18x    frame=25782 fps= 76 q=-0.0 size=N/A time=00:17:55.32 bitrate=N/A speed=3.18x    frame=25825 fps= 76 q=-0.0 size=N/A time=00:17:57.11 bitrate=N/A speed=3.18x    frame=25864 fps= 76 q=-0.0 size=N/A time=00:17:58.74 bitrate=N/A speed=3.18x    frame=25899 fps= 76 q=-0.0 size=N/A time=00:18:00.20 bitrate=N/A speed=3.18x    frame=25942 fps= 76 q=-0.0 size=N/A time=00:18:01.99 bitrate=N/A speed=3.18x    frame=25981 fps= 76 q=-0.0 size=N/A time=00:18:03.62 bitrate=N/A speed=3.18x    frame=26021 fps= 76 q=-0.0 size=N/A time=00:18:05.29 bitrate=N/A speed=3.18x    frame=26061 fps= 76 q=-0.0 size=N/A time=00:18:06.96 bitrate=N/A speed=3.18x    frame=26101 fps= 76 q=-0.0 size=N/A time=00:18:08.62 bitrate=N/A speed=3.18x    frame=26125 fps= 76 q=-0.0 size=N/A time=00:18:09.63 bitrate=N/A speed=3.18x    frame=26172 fps= 76 q=-0.0 size=N/A time=00:18:11.59 bitrate=N/A speed=3.18x    frame=26218 fps= 76 q=-0.0 size=N/A time=00:18:13.50 bitrate=N/A speed=3.18x    frame=26256 fps= 76 q=-0.0 size=N/A time=00:18:15.09 bitrate=N/A speed=3.18x    frame=26293 fps= 76 q=-0.0 size=N/A time=00:18:16.63 bitrate=N/A speed=3.18x    frame=26335 fps= 76 q=-0.0 size=N/A time=00:18:18.38 bitrate=N/A speed=3.18x    frame=26375 fps= 76 q=-0.0 size=N/A time=00:18:20.05 bitrate=N/A speed=3.18x    frame=26412 fps= 76 q=-0.0 size=N/A time=00:18:21.60 bitrate=N/A speed=3.18x    frame=26455 fps= 76 q=-0.0 size=N/A time=00:18:23.39 bitrate=N/A speed=3.18x    frame=26493 fps= 76 q=-0.0 size=N/A time=00:18:24.97 bitrate=N/A speed=3.18x    frame=26532 fps= 76 q=-0.0 size=N/A time=00:18:26.60 bitrate=N/A speed=3.18x    frame=26570 fps= 76 q=-0.0 size=N/A time=00:18:28.19 bitrate=N/A speed=3.18x    frame=26611 fps= 76 q=-0.0 size=N/A time=00:18:29.90 bitrate=N/A speed=3.18x    frame=26649 fps= 76 q=-0.0 size=N/A time=00:18:31.48 bitrate=N/A speed=3.18x    frame=26690 fps= 76 q=-0.0 size=N/A time=00:18:33.19 bitrate=N/A speed=3.18x    frame=26728 fps= 76 q=-0.0 size=N/A time=00:18:34.78 bitrate=N/A speed=3.18x    frame=26761 fps= 76 q=-0.0 size=N/A time=00:18:36.15 bitrate=N/A speed=3.18x    frame=26806 fps= 76 q=-0.0 size=N/A time=00:18:38.03 bitrate=N/A speed=3.18x    frame=26842 fps= 76 q=-0.0 size=N/A time=00:18:39.53 bitrate=N/A speed=3.18x    frame=26884 fps= 76 q=-0.0 size=N/A time=00:18:41.28 bitrate=N/A speed=3.18x    frame=26921 fps= 76 q=-0.0 size=N/A time=00:18:42.83 bitrate=N/A speed=3.18x    frame=26963 fps= 76 q=-0.0 size=N/A time=00:18:44.58 bitrate=N/A speed=3.18x    frame=27003 fps= 76 q=-0.0 size=N/A time=00:18:46.25 bitrate=N/A speed=3.18x    frame=27042 fps= 76 q=-0.0 size=N/A time=00:18:47.87 bitrate=N/A speed=3.18x    frame=27067 fps= 76 q=-0.0 size=N/A time=00:18:48.91 bitrate=N/A speed=3.18x    frame=27117 fps= 76 q=-0.0 size=N/A time=00:18:51.00 bitrate=N/A speed=3.18x    frame=27163 fps= 76 q=-0.0 size=N/A time=00:18:52.92 bitrate=N/A speed=3.18x    frame=27200 fps= 76 q=-0.0 size=N/A time=00:18:54.46 bitrate=N/A speed=3.18x    frame=27235 fps= 76 q=-0.0 size=N/A time=00:18:55.92 bitrate=N/A speed=3.18x    frame=27278 fps= 76 q=-0.0 size=N/A time=00:18:57.71 bitrate=N/A speed=3.18x    frame=27318 fps= 76 q=-0.0 size=N/A time=00:18:59.38 bitrate=N/A speed=3.18x    frame=27356 fps= 76 q=-0.0 size=N/A time=00:19:00.97 bitrate=N/A speed=3.18x    frame=27397 fps= 76 q=-0.0 size=N/A time=00:19:02.68 bitrate=N/A speed=3.18x    frame=27436 fps= 76 q=-0.0 size=N/A time=00:19:04.30 bitrate=N/A speed=3.18x    frame=27473 fps= 76 q=-0.0 size=N/A time=00:19:05.85 bitrate=N/A speed=3.18x    frame=27515 fps= 76 q=-0.0 size=N/A time=00:19:07.60 bitrate=N/A speed=3.18x    frame=27550 fps= 76 q=-0.0 size=N/A time=00:19:09.06 bitrate=N/A speed=3.18x    frame=27593 fps= 76 q=-0.0 size=N/A time=00:19:10.85 bitrate=N/A speed=3.18x    frame=27633 fps= 76 q=-0.0 size=N/A time=00:19:12.52 bitrate=N/A speed=3.18x    frame=27668 fps= 76 q=-0.0 size=N/A time=00:19:13.98 bitrate=N/A speed=3.18x    frame=27713 fps= 76 q=-0.0 size=N/A time=00:19:15.86 bitrate=N/A speed=3.18x    frame=27751 fps= 76 q=-0.0 size=N/A time=00:19:17.44 bitrate=N/A speed=3.18x    frame=27792 fps= 76 q=-0.0 size=N/A time=00:19:19.15 bitrate=N/A speed=3.18x    frame=27831 fps= 76 q=-0.0 size=N/A time=00:19:20.78 bitrate=N/A speed=3.18x    frame=27871 fps= 76 q=-0.0 size=N/A time=00:19:22.45 bitrate=N/A speed=3.18x    frame=27903 fps= 76 q=-0.0 size=N/A time=00:19:23.78 bitrate=N/A speed=3.18x    frame=27950 fps= 76 q=-0.0 size=N/A time=00:19:25.74 bitrate=N/A speed=3.18x    frame=27988 fps= 76 q=-0.0 size=N/A time=00:19:27.33 bitrate=N/A speed=3.18x    frame=28028 fps= 76 q=-0.0 size=N/A time=00:19:29.00 bitrate=N/A speed=3.18x    frame=28058 fps= 76 q=-0.0 size=N/A time=00:19:30.25 bitrate=N/A speed=3.18x    frame=28103 fps= 76 q=-0.0 size=N/A time=00:19:32.12 bitrate=N/A speed=3.18x    frame=28148 fps= 76 q=-0.0 size=N/A time=00:19:34.00 bitrate=N/A speed=3.18x    frame=28188 fps= 76 q=-0.0 size=N/A time=00:19:35.67 bitrate=N/A speed=3.18x    frame=28227 fps= 76 q=-0.0 size=N/A time=00:19:37.30 bitrate=N/A speed=3.18x    frame=28260 fps= 76 q=-0.0 size=N/A time=00:19:38.67 bitrate=N/A speed=3.18x    frame=28305 fps= 76 q=-0.0 size=N/A time=00:19:40.55 bitrate=N/A speed=3.18x    frame=28337 fps= 76 q=-0.0 size=N/A time=00:19:41.88 bitrate=N/A speed=3.18x    frame=28382 fps= 76 q=-0.0 size=N/A time=00:19:43.76 bitrate=N/A speed=3.18x    frame=28425 fps= 76 q=-0.0 size=N/A time=00:19:45.55 bitrate=N/A speed=3.18x    frame=28464 fps= 76 q=-0.0 size=N/A time=00:19:47.18 bitrate=N/A speed=3.18x    frame=28503 fps= 76 q=-0.0 size=N/A time=00:19:48.81 bitrate=N/A speed=3.18x    frame=28544 fps= 76 q=-0.0 size=N/A time=00:19:50.52 bitrate=N/A speed=3.18x    frame=28583 fps= 76 q=-0.0 size=N/A time=00:19:52.14 bitrate=N/A speed=3.18x    frame=28622 fps= 76 q=-0.0 size=N/A time=00:19:53.77 bitrate=N/A speed=3.18x    frame=28654 fps= 76 q=-0.0 size=N/A time=00:19:55.11 bitrate=N/A speed=3.18x    frame=28701 fps= 76 q=-0.0 size=N/A time=00:19:57.07 bitrate=N/A speed=3.18x    frame=28740 fps= 76 q=-0.0 size=N/A time=00:19:58.69 bitrate=N/A speed=3.18x    frame=28779 fps= 76 q=-0.0 size=N/A time=00:20:00.32 bitrate=N/A speed=3.18x    frame=28818 fps= 76 q=-0.0 size=N/A time=00:20:01.95 bitrate=N/A speed=3.18x    frame=28857 fps= 76 q=-0.0 size=N/A time=00:20:03.57 bitrate=N/A speed=3.18x    frame=28889 fps= 76 q=-0.0 size=N/A time=00:20:04.91 bitrate=N/A speed=3.18x    frame=28936 fps= 76 q=-0.0 size=N/A time=00:20:06.87 bitrate=N/A speed=3.18x    frame=28974 fps= 76 q=-0.0 size=N/A time=00:20:08.45 bitrate=N/A speed=3.18x    frame=29007 fps= 76 q=-0.0 size=N/A time=00:20:09.83 bitrate=N/A speed=3.18x    frame=29057 fps= 76 q=-0.0 size=N/A time=00:20:11.91 bitrate=N/A speed=3.18x    frame=29094 fps= 76 q=-0.0 size=N/A time=00:20:13.46 bitrate=N/A speed=3.18x    frame=29130 fps= 76 q=-0.0 size=N/A time=00:20:14.96 bitrate=N/A speed=3.18x    frame=29173 fps= 76 q=-0.0 size=N/A time=00:20:16.75 bitrate=N/A speed=3.18x    frame=29213 fps= 76 q=-0.0 size=N/A time=00:20:18.42 bitrate=N/A speed=3.18x    frame=29245 fps= 76 q=-0.0 size=N/A time=00:20:19.76 bitrate=N/A speed=3.18x    frame=29291 fps= 76 q=-0.0 size=N/A time=00:20:21.67 bitrate=N/A speed=3.18x    frame=29326 fps= 76 q=-0.0 size=N/A time=00:20:23.13 bitrate=N/A speed=3.18x    frame=29371 fps= 76 q=-0.0 size=N/A time=00:20:25.01 bitrate=N/A speed=3.18x    frame=29407 fps= 76 q=-0.0 size=N/A time=00:20:26.51 bitrate=N/A speed=3.18x    frame=29442 fps= 76 q=-0.0 size=N/A time=00:20:27.97 bitrate=N/A speed=3.18x    frame=29490 fps= 76 q=-0.0 size=N/A time=00:20:29.97 bitrate=N/A speed=3.18x    frame=29526 fps= 76 q=-0.0 size=N/A time=00:20:31.48 bitrate=N/A speed=3.18x    frame=29556 fps= 76 q=-0.0 size=N/A time=00:20:32.73 bitrate=N/A speed=3.18x    frame=29609 fps= 76 q=-0.0 size=N/A time=00:20:34.94 bitrate=N/A speed=3.18x    frame=29647 fps= 76 q=-0.0 size=N/A time=00:20:36.52 bitrate=N/A speed=3.18x    frame=29681 fps= 76 q=-0.0 size=N/A time=00:20:37.94 bitrate=N/A speed=3.18x    frame=29726 fps= 76 q=-0.0 size=N/A time=00:20:39.82 bitrate=N/A speed=3.18x    frame=29766 fps= 76 q=-0.0 size=N/A time=00:20:41.49 bitrate=N/A speed=3.18x    frame=29805 fps= 76 q=-0.0 size=N/A time=00:20:43.11 bitrate=N/A speed=3.18x    frame=29843 fps= 76 q=-0.0 size=N/A time=00:20:44.70 bitrate=N/A speed=3.18x    frame=29886 fps= 76 q=-0.0 size=N/A time=00:20:46.49 bitrate=N/A speed=3.18x    frame=29921 fps= 76 q=-0.0 size=N/A time=00:20:47.95 bitrate=N/A speed=3.18x    frame=29967 fps= 76 q=-0.0 size=N/A time=00:20:49.87 bitrate=N/A speed=3.18x    frame=30006 fps= 76 q=-0.0 size=N/A time=00:20:51.50 bitrate=N/A speed=3.18x    frame=30036 fps= 76 q=-0.0 size=N/A time=00:20:52.75 bitrate=N/A speed=3.18x    frame=30084 fps= 76 q=-0.0 size=N/A time=00:20:54.75 bitrate=N/A speed=3.18x    frame=30122 fps= 76 q=-0.0 size=N/A time=00:20:56.33 bitrate=N/A speed=3.18x    frame=30163 fps= 76 q=-0.0 size=N/A time=00:20:58.04 bitrate=N/A speed=3.18x    frame=30202 fps= 76 q=-0.0 size=N/A time=00:20:59.67 bitrate=N/A speed=3.18x    frame=30241 fps= 76 q=-0.0 size=N/A time=00:21:01.30 bitrate=N/A speed=3.18x    frame=30280 fps= 76 q=-0.0 size=N/A time=00:21:02.92 bitrate=N/A speed=3.18x    frame=30318 fps= 76 q=-0.0 size=N/A time=00:21:04.51 bitrate=N/A speed=3.18x    frame=30357 fps= 76 q=-0.0 size=N/A time=00:21:06.13 bitrate=N/A speed=3.18x    frame=30393 fps= 76 q=-0.0 size=N/A time=00:21:07.64 bitrate=N/A speed=3.18x    frame=30427 fps= 76 q=-0.0 size=N/A time=00:21:09.05 bitrate=N/A speed=3.18x    frame=30476 fps= 76 q=-0.0 size=N/A time=00:21:11.10 bitrate=N/A speed=3.18x    frame=30511 fps= 76 q=-0.0 size=N/A time=00:21:12.56 bitrate=N/A speed=3.18x    frame=30556 fps= 76 q=-0.0 size=N/A time=00:21:14.43 bitrate=N/A speed=3.18x    frame=30595 fps= 76 q=-0.0 size=N/A time=00:21:16.06 bitrate=N/A speed=3.18x    frame=30634 fps= 76 q=-0.0 size=N/A time=00:21:17.69 bitrate=N/A speed=3.18x    frame=30670 fps= 76 q=-0.0 size=N/A time=00:21:19.19 bitrate=N/A speed=3.18x    frame=30711 fps= 76 q=-0.0 size=N/A time=00:21:20.90 bitrate=N/A speed=3.18x    frame=30751 fps= 76 q=-0.0 size=N/A time=00:21:22.57 bitrate=N/A speed=3.18x    frame=30790 fps= 76 q=-0.0 size=N/A time=00:21:24.19 bitrate=N/A speed=3.18x    frame=30830 fps= 76 q=-0.0 size=N/A time=00:21:25.86 bitrate=N/A speed=3.18x    frame=30869 fps= 76 q=-0.0 size=N/A time=00:21:27.49 bitrate=N/A speed=3.18x    frame=30907 fps= 76 q=-0.0 size=N/A time=00:21:29.07 bitrate=N/A speed=3.18x    frame=30943 fps= 76 q=-0.0 size=N/A time=00:21:30.58 bitrate=N/A speed=3.18x    frame=30987 fps= 76 q=-0.0 size=N/A time=00:21:32.41 bitrate=N/A speed=3.18x    frame=31028 fps= 76 q=-0.0 size=N/A time=00:21:34.12 bitrate=N/A speed=3.18x    frame=31067 fps= 76 q=-0.0 size=N/A time=00:21:35.75 bitrate=N/A speed=3.18x    frame=31105 fps= 76 q=-0.0 size=N/A time=00:21:37.33 bitrate=N/A speed=3.18x    frame=31139 fps= 76 q=-0.0 size=N/A time=00:21:38.75 bitrate=N/A speed=3.18x    frame=31185 fps= 76 q=-0.0 size=N/A time=00:21:40.67 bitrate=N/A speed=3.18x    frame=31224 fps= 76 q=-0.0 size=N/A time=00:21:42.30 bitrate=N/A speed=3.18x    frame=31263 fps= 76 q=-0.0 size=N/A time=00:21:43.92 bitrate=N/A speed=3.18x    frame=31304 fps= 76 q=-0.0 size=N/A time=00:21:45.63 bitrate=N/A speed=3.18x    frame=31341 fps= 76 q=-0.0 size=N/A time=00:21:47.18 bitrate=N/A speed=3.18x    frame=31381 fps= 76 q=-0.0 size=N/A time=00:21:48.84 bitrate=N/A speed=3.18x    frame=31408 fps= 76 q=-0.0 size=N/A time=00:21:49.97 bitrate=N/A speed=3.18x    frame=31460 fps= 76 q=-0.0 size=N/A time=00:21:52.14 bitrate=N/A speed=3.18x    frame=31501 fps= 76 q=-0.0 size=N/A time=00:21:53.85 bitrate=N/A speed=3.18x    frame=31539 fps= 76 q=-0.0 size=N/A time=00:21:55.43 bitrate=N/A speed=3.18x    frame=31578 fps= 76 q=-0.0 size=N/A time=00:21:57.06 bitrate=N/A speed=3.18x    frame=31619 fps= 76 q=-0.0 size=N/A time=00:21:58.77 bitrate=N/A speed=3.18x    frame=31653 fps= 76 q=-0.0 size=N/A time=00:22:00.19 bitrate=N/A speed=3.18x    frame=31698 fps= 76 q=-0.0 size=N/A time=00:22:02.07 bitrate=N/A speed=3.18x    frame=31738 fps= 76 q=-0.0 size=N/A time=00:22:03.73 bitrate=N/A speed=3.18x    frame=31776 fps= 76 q=-0.0 size=N/A time=00:22:05.32 bitrate=N/A speed=3.18x    frame=31818 fps= 76 q=-0.0 size=N/A time=00:22:07.07 bitrate=N/A speed=3.18x    frame=31858 fps= 76 q=-0.0 size=N/A time=00:22:08.74 bitrate=N/A speed=3.18x    frame=31889 fps= 76 q=-0.0 size=N/A time=00:22:10.03 bitrate=N/A speed=3.18x    frame=31935 fps= 76 q=-0.0 size=N/A time=00:22:11.95 bitrate=N/A speed=3.18x    frame=31976 fps= 76 q=-0.0 size=N/A time=00:22:13.66 bitrate=N/A speed=3.18x    frame=32017 fps= 76 q=-0.0 size=N/A time=00:22:15.37 bitrate=N/A speed=3.18x    frame=32053 fps= 76 q=-0.0 size=N/A time=00:22:16.87 bitrate=N/A speed=3.18x    frame=32096 fps= 76 q=-0.0 size=N/A time=00:22:18.67 bitrate=N/A speed=3.18x    frame=32133 fps= 76 q=-0.0 size=N/A time=00:22:20.21 bitrate=N/A speed=3.18x    frame=32174 fps= 76 q=-0.0 size=N/A time=00:22:21.92 bitrate=N/A speed=3.18x    frame=32214 fps= 76 q=-0.0 size=N/A time=00:22:23.59 bitrate=N/A speed=3.18x    frame=32252 fps= 76 q=-0.0 size=N/A time=00:22:25.17 bitrate=N/A speed=3.18x    frame=32292 fps= 76 q=-0.0 size=N/A time=00:22:26.84 bitrate=N/A speed=3.18x    frame=32324 fps= 76 q=-0.0 size=N/A time=00:22:28.18 bitrate=N/A speed=3.18x    frame=32371 fps= 76 q=-0.0 size=N/A time=00:22:30.14 bitrate=N/A speed=3.18x    frame=32403 fps= 76 q=-0.0 size=N/A time=00:22:31.47 bitrate=N/A speed=3.18x    frame=32444 fps= 76 q=-0.0 size=N/A time=00:22:33.18 bitrate=N/A speed=3.18x    frame=32487 fps= 76 q=-0.0 size=N/A time=00:22:34.97 bitrate=N/A speed=3.18x    frame=32527 fps= 76 q=-0.0 size=N/A time=00:22:36.64 bitrate=N/A speed=3.18x    frame=32566 fps= 76 q=-0.0 size=N/A time=00:22:38.27 bitrate=N/A speed=3.18x    frame=32605 fps= 76 q=-0.0 size=N/A time=00:22:39.90 bitrate=N/A speed=3.18x    frame=32641 fps= 76 q=-0.0 size=N/A time=00:22:41.40 bitrate=N/A speed=3.18x    frame=32677 fps= 76 q=-0.0 size=N/A time=00:22:42.90 bitrate=N/A speed=3.18x    frame=32723 fps= 76 q=-0.0 size=N/A time=00:22:44.82 bitrate=N/A speed=3.18x    frame=32754 fps= 76 q=-0.0 size=N/A time=00:22:46.11 bitrate=N/A speed=3.18x    frame=32799 fps= 76 q=-0.0 size=N/A time=00:22:47.99 bitrate=N/A speed=3.18x    frame=32840 fps= 76 q=-0.0 size=N/A time=00:22:49.70 bitrate=N/A speed=3.18x    frame=32869 fps= 76 q=-0.0 size=N/A time=00:22:50.91 bitrate=N/A speed=3.18x    frame=32918 fps= 76 q=-0.0 size=N/A time=00:22:52.95 bitrate=N/A speed=3.18x    frame=32952 fps= 76 q=-0.0 size=N/A time=00:22:54.37 bitrate=N/A speed=3.18x    frame=32997 fps= 76 q=-0.0 size=N/A time=00:22:56.24 bitrate=N/A speed=3.18x    frame=33035 fps= 76 q=-0.0 size=N/A time=00:22:57.83 bitrate=N/A speed=3.18x    frame=33075 fps= 76 q=-0.0 size=N/A time=00:22:59.50 bitrate=N/A speed=3.18x    frame=33113 fps= 76 q=-0.0 size=N/A time=00:23:01.08 bitrate=N/A speed=3.18x    frame=33152 fps= 76 q=-0.0 size=N/A time=00:23:02.71 bitrate=N/A speed=3.18x    frame=33180 fps= 76 q=-0.0 size=N/A time=00:23:03.88 bitrate=N/A speed=3.18x    frame=33228 fps= 76 q=-0.0 size=N/A time=00:23:05.88 bitrate=N/A speed=3.18x    frame=33265 fps= 76 q=-0.0 size=N/A time=00:23:07.42 bitrate=N/A speed=3.18x    frame=33305 fps= 76 q=-0.0 size=N/A time=00:23:09.09 bitrate=N/A speed=3.18x    frame=33343 fps= 76 q=-0.0 size=N/A time=00:23:10.68 bitrate=N/A speed=3.18x    frame=33380 fps= 76 q=-0.0 size=N/A time=00:23:12.22 bitrate=N/A speed=3.18x    frame=33422 fps= 76 q=-0.0 size=N/A time=00:23:13.97 bitrate=N/A speed=3.18x    frame=33461 fps= 76 q=-0.0 size=N/A time=00:23:15.60 bitrate=N/A speed=3.18x    frame=33500 fps= 76 q=-0.0 size=N/A time=00:23:17.22 bitrate=N/A speed=3.18x    frame=33528 fps= 76 q=-0.0 size=N/A time=00:23:18.39 bitrate=N/A speed=3.18x    frame=33577 fps= 76 q=-0.0 size=N/A time=00:23:20.44 bitrate=N/A speed=3.18x    frame=33616 fps= 76 q=-0.0 size=N/A time=00:23:22.06 bitrate=N/A speed=3.18x    frame=33647 fps= 76 q=-0.0 size=N/A time=00:23:23.36 bitrate=N/A speed=3.18x    frame=33694 fps= 76 q=-0.0 size=N/A time=00:23:25.32 bitrate=N/A speed=3.18x    frame=33728 fps= 76 q=-0.0 size=N/A time=00:23:26.73 bitrate=N/A speed=3.18x    frame=33771 fps= 76 q=-0.0 size=N/A time=00:23:28.53 bitrate=N/A speed=3.18x    frame=33807 fps= 76 q=-0.0 size=N/A time=00:23:30.03 bitrate=N/A speed=3.18x    frame=33844 fps= 76 q=-0.0 size=N/A time=00:23:31.57 bitrate=N/A speed=3.18x    frame=33880 fps= 76 q=-0.0 size=N/A time=00:23:33.07 bitrate=N/A speed=3.18x    frame=33926 fps= 76 q=-0.0 size=N/A time=00:23:34.99 bitrate=N/A speed=3.18x    frame=33964 fps= 76 q=-0.0 size=N/A time=00:23:36.58 bitrate=N/A speed=3.18x    frame=33998 fps= 76 q=-0.0 size=N/A time=00:23:37.99 bitrate=N/A speed=3.18x    frame=34043 fps= 76 q=-0.0 size=N/A time=00:23:39.87 bitrate=N/A speed=3.18x    frame=34080 fps= 76 q=-0.0 size=N/A time=00:23:41.42 bitrate=N/A speed=3.18x    frame=34119 fps= 76 q=-0.0 size=N/A time=00:23:43.04 bitrate=N/A speed=3.18x    frame=34158 fps= 76 q=-0.0 size=N/A time=00:23:44.67 bitrate=N/A speed=3.18x    frame=34192 fps= 76 q=-0.0 size=N/A time=00:23:46.09 bitrate=N/A speed=3.18x    frame=34235 fps= 76 q=-0.0 size=N/A time=00:23:47.88 bitrate=N/A speed=3.18x    frame=34275 fps= 76 q=-0.0 size=N/A time=00:23:49.55 bitrate=N/A speed=3.18x    frame=34308 fps= 76 q=-0.0 size=N/A time=00:23:50.92 bitrate=N/A speed=3.18x    frame=34353 fps= 76 q=-0.0 size=N/A time=00:23:52.80 bitrate=N/A speed=3.18x    frame=34393 fps= 76 q=-0.0 size=N/A time=00:23:54.47 bitrate=N/A speed=3.18x    frame=34432 fps= 76 q=-0.0 size=N/A time=00:23:56.10 bitrate=N/A speed=3.18x    frame=34470 fps= 76 q=-0.0 size=N/A time=00:23:57.68 bitrate=N/A speed=3.18x    frame=34509 fps= 76 q=-0.0 size=N/A time=00:23:59.31 bitrate=N/A speed=3.18x    frame=34549 fps= 76 q=-0.0 size=N/A time=00:24:00.98 bitrate=N/A speed=3.18x    [Parsed_psnr_10 @ 00000232e8eea740] PSNR y:45.411238 u:49.725918 v:48.904985 average:46.364436 min:37.630220 max:inf
[out#0/null @ 00000232e87b0d80] video:14860KiB audio:270472KiB subtitle:0KiB other streams:0KiB global headers:0KiB muxing overhead: unknown
frame=34584 fps= 76 q=-0.0 Lsize=N/A time=00:24:02.44 bitrate=N/A speed=3.18x    
